<?xml version="1.0" encoding="UTF-8" standalone="no"?>
<svg
   xmlns:dc="http://purl.org/dc/elements/1.1/"
   xmlns:cc="http://creativecommons.org/ns#"
   xmlns:rdf="http://www.w3.org/1999/02/22-rdf-syntax-ns#"
   xmlns:svg="http://www.w3.org/2000/svg"
   xmlns="http://www.w3.org/2000/svg"
   viewBox="0 0 755.90668 755.90668"
   height="755.90668"
   width="755.90668"
   xml:space="preserve"
   id="svg2"
   version="1.1"><metadata
     id="metadata8"><rdf:RDF><cc:Work
         rdf:about=""><dc:format>image/svg+xml</dc:format><dc:type
           rdf:resource="http://purl.org/dc/dcmitype/StillImage" /></cc:Work></rdf:RDF></metadata><defs
     id="defs6" /><g
     transform="matrix(1.3333333,0,0,-1.3333333,0,755.90667)"
     id="g10"><g
       transform="scale(0.1)"
       id="g12"><path
         id="path14"
         style="fill:#f6917f;fill-opacity:1;fill-rule:evenodd;stroke:none"
         d="M 5669.3,5669.29 H 0 V 0 h 5669.3 v 5669.29" /><path
         id="path16"
         style="fill:#ffffff;fill-opacity:0.1;fill-rule:nonzero;stroke:none"
         d="m 5152.63,374.289 h -0.02 c 5.79,16.742 13.07,64.242 15.23,125.91 1.57,44.77 0.53,97.731 -5.5,153.711 -15.77,146.34 -41.12,228.192 -67.49,313.289 -42.7,137.881 -88.04,284.271 -100.12,723.241 -2.9,105.66 -8.84,209.21 -14.72,311.74 -12.06,210.59 -23.88,416.88 -8.81,632.46 11.41,163.32 69.98,476.6 119.41,740.97 14.01,74.91 27.29,145.93 38.19,206.41 32.64,181.15 34.41,338.51 36.31,506.5 0.92,83.03 1.89,168.65 6.59,260.7 2.79,54.72 4.61,111.69 3.58,179.75 -1.02,67.96 -4.89,147.36 -13.49,247.23 -12.32,143.08 -32.31,262.89 -50.75,373.38 -29.72,178.16 -55.4,332.19 -38.7,519.71 h 14.28 c -16.78,-186.68 8.78,-339.99 38.38,-517.39 18.5,-110.86 38.55,-231.09 50.91,-374.53 8.58,-99.73 12.46,-179.53 13.49,-248.24 1.03,-68.61 -0.79,-125.8 -3.59,-180.64 -4.7,-92.21 -5.66,-177.44 -6.59,-260.08 -1.9,-168.62 -3.68,-326.58 -36.53,-508.88 -11.46,-63.6 -24.47,-133.17 -38.18,-206.52 -49.35,-263.96 -107.84,-576.76 -119.2,-739.31 -15.01,-214.82 -3.22,-420.64 8.82,-630.75 5.87,-102.34 11.79,-205.72 14.72,-312.13 12.02,-436.99 57.08,-582.46 99.52,-719.468 26.56,-85.762 52.12,-168.262 68.03,-315.942 6.1,-56.621 7.15,-110.262 5.56,-155.648 -2.18,-62.2 -9.64,-110.653 -15.73,-129.012 l 0.1,-0.031 C 5120.42,228.32 5096.37,108.531 5086.62,0 h -14.28 c 9.76,109.52 33.97,230.441 80.29,374.289 z m -1610.56,2.852 h 0.02 c 5.71,17.648 12.49,62.8 14.6,123.058 1.57,44.77 0.52,97.731 -5.51,153.711 -15.77,146.34 -41.12,228.192 -67.48,313.289 -42.7,137.881 -88.06,284.271 -100.13,723.241 -2.91,105.66 -8.83,209.21 -14.71,311.74 -12.06,210.6 -23.89,416.88 -8.82,632.46 4.68,66.96 6.94,167.74 9.52,283.2 5.51,246 12.5,558.53 47.28,751.55 23.68,131.48 47.95,236.1 69.72,329.94 56.05,241.55 95.51,411.65 64.07,776.87 -12.31,143.08 -32.31,262.89 -50.74,373.38 -29.72,178.16 -55.41,332.19 -38.7,519.71 h 14.28 c -16.78,-186.68 8.78,-339.99 38.37,-517.39 18.5,-110.86 38.56,-231.09 50.91,-374.53 31.62,-367.34 -8.06,-538.35 -64.4,-781.2 -21.8,-93.96 -46.1,-198.71 -69.62,-329.27 -34.58,-191.93 -41.56,-503.84 -47.05,-749.34 -2.6,-115.99 -4.86,-217.22 -9.52,-283.86 -15.02,-214.81 -3.22,-420.63 8.82,-630.75 5.86,-102.34 11.79,-205.72 14.71,-312.13 12.02,-436.99 57.08,-582.46 99.52,-719.468 26.57,-85.762 52.12,-168.262 68.03,-315.942 6.1,-56.621 7.15,-110.262 5.56,-155.648 -2.21,-63.153 -9.52,-111.172 -15.65,-128.891 h -0.02 c -1.41,-4.43 -3.13,-10.019 -4.38,-13.992 C 3507.71,220.539 3484.9,104.992 3475.47,0 h -14.28 c 9.46,106.242 32.53,223.23 76.19,361.449 1.3,4.121 2.91,10.031 4.3,14.481 l 0.04,0.109 0.35,1.102 z M 1938.22,336.129 c 6.19,20.402 15.67,49.961 18.95,70.691 3.63,22.91 6.87,55.102 8.2,93.379 1.58,44.77 0.53,97.731 -5.51,153.711 -15.76,146.34 -41.11,228.192 -67.48,313.289 -42.69,137.881 -88.04,284.271 -100.11,723.241 -2.92,105.66 -8.85,209.21 -14.73,311.74 -12.05,210.6 -23.87,416.88 -8.81,632.46 4.98,71.32 5.66,175.79 6.41,293.78 1.46,228.23 3.26,506.91 36.95,693.92 19.55,108.5 46.19,201.64 72.13,292.25 39.06,136.55 76.48,267.36 85.02,434.63 2.77,54.72 4.59,111.69 3.57,179.75 -1.01,67.96 -4.88,147.36 -13.49,247.23 -12.31,143.08 -32.31,262.89 -50.75,373.38 -29.72,178.16 -55.39,332.19 -38.69,519.71 h 14.28 c -16.78,-186.68 8.77,-339.99 38.38,-517.39 18.49,-110.86 38.55,-231.09 50.9,-374.53 8.59,-99.73 12.46,-179.53 13.49,-248.24 1.04,-68.61 -0.8,-125.8 -3.59,-180.64 -8.61,-168.98 -46.23,-300.5 -85.51,-437.78 -25.9,-90.48 -52.5,-183.49 -71.85,-290.86 -33.48,-185.82 -35.26,-463.82 -36.72,-691.49 -0.76,-118.5 -1.45,-223.44 -6.41,-294.66 -15.02,-214.81 -3.22,-420.63 8.81,-630.75 5.88,-102.34 11.8,-205.72 14.71,-312.13 12.03,-436.99 57.09,-582.46 99.53,-719.468 26.56,-85.762 52.13,-168.262 68.03,-315.942 6.11,-56.621 7.16,-110.262 5.56,-155.648 -1.37,-39.282 -4.76,-72.532 -8.61,-96.313 -4.22,-26.199 -11.08,-44.91 -18.77,-70.219 C 1913.79,207.09 1893.05,98.8711 1884.16,0 h -14.28 c 8.89,99.6914 29.73,208.84 68.34,336.129 z m 3032.07,45.601 h -0.08 c -2.24,117.961 -39.9,426.891 -66.29,643.44 -4.59,37.66 -8.85,72.55 -12.51,103.14 -28.49,237.84 -10.97,470.79 7.08,710.55 21.39,284.49 43.53,578.63 -9.94,901.18 -26.65,160.81 -20.47,412.13 2.23,674.29 28.81,332.7 84.23,683.21 132.92,888.3 50.32,211.93 19,587.66 -5.63,883.25 -6.49,77.85 -12.52,150.15 -16.51,213.18 -4.57,72.25 -8.91,131.96 -12.81,185.52 -2.16,29.72 -4.18,57.55 -6.04,84.71 h 14.18 c 1.84,-26.84 3.84,-54.34 5.98,-83.71 3.87,-53.21 8.18,-112.51 12.81,-185.63 3.92,-61.88 9.98,-134.59 16.51,-212.91 24.71,-296.58 56.14,-673.56 5.3,-887.67 -48.56,-204.54 -103.85,-554.23 -132.6,-886.25 -22.62,-261.23 -28.82,-511.34 -2.39,-670.8 53.76,-324.28 31.56,-619.23 10.1,-904.51 -17.99,-239.07 -35.46,-471.33 -7.13,-707.84 3.66,-30.59 7.92,-65.48 12.51,-103.14 26.33,-216.06 63.86,-523.978 66.33,-643.83 h 0.16 c 0,-172.199 4.82,-271.891 12.42,-383 h -14.18 c -7.58,110.859 -12.39,210.52 -12.42,381.73 z m -1611.15,0 h -0.08 c -2.25,117.961 -39.9,426.891 -66.3,643.44 -4.59,37.66 -8.84,72.55 -12.51,103.14 -28.49,237.84 -10.96,470.79 7.07,710.55 21.41,284.49 43.54,578.63 -9.93,901.18 -26.64,160.81 -20.48,412.13 2.23,674.29 28.81,332.7 84.24,683.21 132.93,888.3 50.32,211.93 19,587.66 -5.64,883.25 -6.48,77.85 -12.52,150.15 -16.5,213.18 -4.57,72.25 -8.92,131.96 -12.81,185.52 -2.16,29.72 -4.18,57.55 -6.05,84.71 h 14.19 c 1.84,-26.84 3.84,-54.34 5.98,-83.71 3.87,-53.21 8.18,-112.51 12.81,-185.63 3.91,-61.88 9.97,-134.59 16.49,-212.91 24.73,-296.58 56.15,-673.56 5.32,-887.67 -48.57,-204.54 -103.85,-554.23 -132.6,-886.25 -22.63,-261.23 -28.82,-511.34 -2.39,-670.8 53.75,-324.28 31.56,-619.23 10.1,-904.51 -17.99,-239.07 -35.47,-471.33 -7.13,-707.84 3.66,-30.59 7.92,-65.48 12.5,-103.14 26.33,-216.06 63.86,-523.978 66.33,-643.83 h 0.16 c 0,-172.199 4.82,-271.891 12.43,-383 h -14.19 c -7.58,110.859 -12.39,210.52 -12.41,381.73 z m -1591.31,0 h -0.08 c -2.24,117.961 -39.9,426.891 -66.31,643.44 -4.59,37.66 -8.84,72.55 -12.5,103.14 -28.49,237.84 -10.97,470.79 7.08,710.55 21.4,284.49 43.53,578.63 -9.93,901.18 -26.66,160.81 -20.49,412.13 2.23,674.29 28.81,332.7 84.22,683.21 132.91,888.3 50.33,211.93 19,587.66 -5.63,883.25 -6.48,77.85 -12.51,150.15 -16.5,213.18 -4.57,72.25 -8.92,131.96 -12.81,185.52 -2.17,29.72 -4.18,57.55 -6.06,84.71 h 14.2 c 1.84,-26.84 3.83,-54.34 5.98,-83.71 3.87,-53.21 8.18,-112.51 12.81,-185.63 3.91,-61.88 9.98,-134.59 16.51,-212.91 24.7,-296.58 56.13,-673.56 5.29,-887.67 -48.56,-204.54 -103.85,-554.23 -132.6,-886.25 -22.62,-261.23 -28.81,-511.34 -2.38,-670.8 53.75,-324.28 31.56,-619.23 10.1,-904.51 -17.99,-239.07 -35.47,-471.33 -7.13,-707.84 3.65,-30.59 7.91,-65.48 12.5,-103.14 26.33,-216.06 63.86,-523.978 66.33,-643.83 h 0.17 c 0,-172.199 4.81,-271.891 12.42,-383 h -14.2 c -7.57,110.859 -12.38,210.52 -12.4,381.73 z m -742.44,2103.47 8.28,-46.1 c 14.26,-79.4 28.87,-160.78 42.17,-244.62 18.16,67.82 69.2,199.42 124.14,341.08 78.55,202.51 165.12,425.69 173.89,508.25 32.56,306.94 -45.69,509 -124.44,712.37 -25.41,65.65 -50.9,131.43 -72.75,200.88 -18.24,-81.53 -16.35,-177.19 -14.49,-271.19 1.03,-52.34 2.07,-104.19 -0.35,-152.87 -6.72,-134.73 -41.08,-351.27 -73.36,-554.94 -19.24,-121.22 -37.74,-237.87 -49.24,-329.74 -4.47,-35.84 -14.14,-124.3 -13.85,-163.12 z M 3851.69,451.34 c 1.75,7.301 3.7,14.941 5.81,22.84 9.47,35.422 22.44,76.679 36.36,119.359 82.1,251.781 88.3,355.281 101.94,583.171 1.69,28.15 3.49,58.18 5.51,89.86 7.67,120.5 55.36,300.25 105.69,489.97 75.03,282.8 155.97,587.87 118.04,747.58 -26.56,111.91 -73.95,253.88 -125.21,407.47 -47.26,141.63 -97.82,293.1 -138.46,440.1 -91.65,-421.47 -52.81,-654.33 -15,-880.86 21.63,-129.61 42.92,-257.18 39.46,-416.86 -4.84,-223.55 -64.93,-591.55 -118.74,-921.12 -10.79,-66.11 -21.34,-130.69 -30.9,-190.768 -32.92,-206.793 -23.5,-257.723 -6.21,-351.312 6.72,-36.309 14.61,-79 21.71,-139.43 z m -218.21,274.051 c 3.93,-31.52 7.83,-63.719 11.67,-96.711 1.26,-10.91 2.92,-24.328 4.63,-38.371 8.51,-69.18 19.16,-155.84 17.1,-227.93 0,-25.09 -0.09,-63.68 -0.18,-98.777 C 3666.42,154.469 3666.22,81.3789 3670.58,0 h -14.17 c -4.3,81.2305 -4.12,154.469 -3.83,263.602 0.06,24.75 0.13,51.46 0.13,99.16 h 0.05 c 2.02,70.769 -8.57,156.988 -17.04,225.828 -1.6,13.07 -3.12,25.461 -4.64,38.492 -16.11,138.707 -33.34,263 -49.82,381.968 -44.81,323.28 -84.2,607.45 -80.57,1030.12 0.62,71.55 2.41,144.96 7.08,225.02 4.69,80.39 12.26,167.5 24.39,266.13 21,170.83 60.32,318.94 99.81,467.74 51.51,194 103.32,389.19 114.95,637.27 3.27,69.76 5.03,138.7 5.97,203.43 0.92,63.2 1.05,124.68 1.05,178.8 0,145.08 -10.84,454.69 -25.98,750.58 -12.85,251.01 -28.83,492.32 -43.95,615.17 -15.58,126.54 -23.56,209.78 -27.6,285.98 h 14.17 c 4.04,-75.68 12.01,-158.54 27.49,-284.26 15.12,-122.91 31.13,-364.64 44,-616.17 15.19,-296.53 26.03,-606.45 26.03,-751.3 0,-52.24 -0.12,-112.34 -1.09,-178.96 -0.95,-65.11 -2.71,-134.26 -5.98,-203.87 -11.7,-249.7 -63.71,-445.58 -115.38,-640.27 -39.35,-148.25 -78.52,-295.82 -99.44,-465.85 -12.12,-98.61 -19.67,-185.37 -24.32,-265.19 -4.67,-80.15 -6.46,-153.28 -7.08,-224.36 -3.62,-421.47 35.72,-705.25 80.45,-1028.08 11.64,-83.968 23.65,-170.582 35.35,-262.832 45.81,107.614 44.5,353.132 43.01,630.032 -0.21,41.32 -0.45,83.35 -0.52,125.77 -0.51,305.41 0.81,498.36 12.97,680.82 12.18,182.66 35.23,354.98 78.15,619.07 25.72,158.26 52.66,348.94 75.63,511.55 23.77,168.25 43.3,306.51 53.03,348.62 -13.81,97.16 -17.08,186.23 -4.59,261.57 65.94,397.84 33.61,856.72 4.16,1274.96 -5.03,71.44 -9.99,141.71 -14.37,210.68 -0.99,15.67 -7.47,129.85 -14.67,258.07 h 14.16 c 7.17,-127.54 13.61,-241.13 14.63,-257.18 4.34,-68.41 9.31,-138.92 14.36,-210.63 29.51,-418.99 61.9,-878.68 -4.31,-1278.16 -46.13,-278.24 137.13,-785.97 210.98,-1007.24 51.45,-154.14 99,-296.62 125.6,-408.69 38.73,-163.11 -42.68,-469.99 -118.16,-754.46 -50.14,-189.02 -97.66,-368.12 -105.25,-487.24 -2.07,-32.59 -3.84,-62.12 -5.5,-89.81 -13.72,-229.169 -19.96,-333.232 -102.61,-586.708 -13.81,-42.391 -26.71,-83.402 -36.14,-118.641 -9.29,-34.761 -15.18,-63.699 -15.18,-82.41 h -0.03 l 3.07,-55.742 c 2.22,-40.399 5.46,-98.688 9.06,-163.117 3.02,-54.403 6.32,-113.18 9.48,-169.262 h -14.16 c -3.15,55.8398 -6.42,114.332 -9.45,168.48 -3.58,64.43 -6.83,122.731 -9.05,163.11 -1.68,30.539 -2.77,51.039 -2.99,56.531 h -0.1 c 0,4.93 0.36,10.481 1.06,16.559 -0.35,0.73 -0.58,1.531 -0.65,2.379 -8.08,83.453 -17.98,137.023 -26.15,181.171 -17.57,95.122 -27.14,146.879 6.16,356.071 9.89,62.149 20.27,125.719 30.89,190.819 53.75,329.17 113.76,696.71 118.59,919.13 3.43,158.25 -17.78,285.24 -39.31,414.26 -38.81,232.51 -78.71,471.64 20.97,912.51 -22.3,83.1 -41.12,164.45 -54.04,241.42 -10.63,-62.28 -26.73,-176.27 -45.47,-308.99 -22.97,-162.54 -49.9,-353.14 -75.7,-511.88 -42.84,-263.54 -65.83,-435.49 -77.98,-617.74 -12.16,-182.44 -13.48,-375.06 -12.96,-679.88 0.06,-42.34 0.29,-84.38 0.51,-125.71 1.56,-290.48 2.92,-546.689 -50.6,-649.541 -0.82,-1.558 -2.14,-2.699 -3.66,-3.308 z M 2494.84,2681.09 c 43.75,324.76 96.61,634.78 151.9,906.08 l 0.04,0.18 c 0.72,3.72 3.53,22.76 5.07,33.35 0.51,3.7 1,6.73 1.41,9.24 -3.36,12.31 -6.93,25.25 -10.62,38.71 -40,145.37 -96.49,350.71 -110.75,466.66 -14.88,121.1 -22.89,224.61 -27.12,319.52 -52.56,-171.05 -96.16,-344.07 -118.13,-519.08 -22.87,-181.87 -22.42,-365.91 15.43,-552.16 18.28,-89.88 48.16,-262.68 68.34,-421.07 9.78,-76.74 17.3,-150.15 20.14,-209.26 0.54,-11.32 2.52,-42.22 4.29,-72.17 z m -532.65,-32.26 c 24,110.46 60.9,244.53 89.39,348.15 22.54,81.96 39.83,144.74 41.1,160.67 l 0.03,0.65 0.24,0.76 c 33.55,114.57 50.98,269.53 60.02,425.6 7.93,137.24 9.37,275.66 9.61,388.18 -22.21,-145.28 -70.71,-288.79 -118.07,-428.89 -19.45,-57.55 -38.73,-114.53 -55.78,-170.51 l -6.15,-20.16 c -56.39,-184.95 -43.4,-361.77 -30.45,-538.33 4.06,-55.32 8.12,-110.62 10.06,-166.12 z m 199.02,1481.87 c -3.38,162.98 -12.64,404.45 -24.57,637.44 -12.85,251.01 -28.83,492.32 -43.95,615.17 -15.56,126.54 -23.55,209.78 -27.59,285.98 h 14.16 c 4.04,-75.68 12.03,-158.54 27.5,-284.26 15.13,-122.91 31.13,-364.64 44,-616.17 15.18,-296.53 26.04,-606.45 26.04,-751.3 0,-119.2 -0.63,-276.71 -9.73,-433.68 -9.06,-156.63 -26.58,-312.33 -60.35,-428.01 -1.74,-17.99 -19.03,-80.84 -41.53,-162.6 -39.84,-144.83 -96.11,-349.41 -110.29,-464.66 -12.13,-98.61 -19.67,-185.37 -24.31,-265.19 -4.67,-80.15 -6.47,-153.28 -7.09,-224.36 -3.62,-421.47 35.72,-705.25 80.46,-1028.08 16.53,-119.23 33.79,-243.789 49.87,-382.3 1.27,-10.91 2.93,-24.328 4.65,-38.371 8.49,-69.18 19.16,-155.84 17.09,-227.93 0,-25.09 -0.1,-63.68 -0.18,-98.777 C 2075.1,154.469 2074.92,81.3789 2079.26,0 h -14.16 c -4.3,81.2305 -4.12,154.469 -3.83,263.602 0.06,24.75 0.14,51.46 0.14,99.16 h 0.05 c 2.02,70.769 -8.59,156.988 -17.05,225.828 -1.6,13.07 -3.12,25.461 -4.64,38.492 -16.1,138.707 -33.34,263 -49.83,381.968 -44.8,323.28 -84.18,607.45 -80.55,1030.12 0.61,71.55 2.41,144.96 7.07,225.02 4.69,80.39 12.25,167.5 24.38,266.13 2.01,16.34 4.86,34.44 8.38,53.9 l -0.02,0.39 c 0,76.92 -5.59,153.11 -11.19,229.35 -13.05,177.81 -26.12,355.87 31.05,543.42 l 6.15,20.16 c 17.21,56.49 36.47,113.41 55.9,170.9 63.83,188.83 129.79,383.89 129.79,580.12 0,0.75 0.12,1.46 0.31,2.14 z M 2611.05,209.082 c 6.7,51.469 13.33,104.668 19.77,160.18 1.52,13.027 3.05,25.41 4.65,38.5 8.46,68.828 19.06,155.047 17.05,225.828 h -0.06 c 0,47.699 -0.08,74.41 -0.14,99.172 -0.21,77.398 -0.35,136.726 1.12,193.617 0.17,7.203 0.39,14.359 0.62,21.5 -0.25,9.93 -0.04,18.953 0.71,26.98 0.05,0.641 0.21,1.262 0.43,1.84 1.46,32.601 3.59,65.821 6.68,102.561 4.72,55.93 11.67,120.23 21.87,203.06 15.12,122.85 31.09,364.17 43.95,615.16 7.32,142.95 13.63,289.09 18.2,418.35 l 0.06,1.95 c 4.86,137.46 7.71,255.65 7.71,330.3 0,49.98 -0.1,106.69 -0.9,167.19 -37.14,-103.71 -54.76,-307.67 -71.17,-497.95 -10.1,-116.97 -19.75,-228.79 -33.32,-309.68 l -5.18,-30.8 c -36.07,-214.65 -63.67,-378.84 -70.87,-603.31 -3.99,-124.7 -1.57,-248.53 0.86,-372.65 2.09,-106.798 4.19,-213.829 2.22,-321.9 -1.31,-71.55 2.87,-167.128 10.96,-262.339 6.21,-73.25 14.73,-146.161 24.78,-207.559 z M 541.016,5669.29 h 14.199 c -12.774,-145.51 -46.738,-264.27 -82.051,-387.68 -25.879,-90.48 -52.48,-183.48 -71.836,-290.86 -33.476,-185.82 -35.273,-463.82 -36.719,-691.49 -0.761,-118.51 -1.445,-223.44 -6.425,-294.66 -15,-214.81 -3.223,-420.63 8.828,-630.75 5.859,-102.34 11.777,-205.72 14.707,-312.12 12.011,-437 57.09,-582.47 99.511,-719.48 26.582,-85.76 52.129,-168.25 68.047,-315.94 6.094,-56.62 7.149,-110.26 5.567,-155.65 -2.227,-63.15 -9.649,-110.71 -15.782,-128.42 l -13.339,4.6 c 5.781,16.73 12.832,62.59 15,124.26 1.562,44.77 0.507,97.73 -5.508,153.71 -15.762,146.33 -41.113,228.19 -67.481,313.29 -42.714,137.88 -88.066,284.27 -100.136,723.24 -2.891,105.65 -8.828,209.21 -14.707,311.74 -12.071,210.59 -23.887,416.88 -8.809,632.46 4.98,71.32 5.645,175.79 6.406,293.78 1.465,228.23 3.262,506.91 36.934,693.92 19.551,108.5 46.211,201.64 72.129,292.25 35.019,122.41 68.711,240.22 81.465,383.8 z m -15.274,-3923.35 13.457,-4.33 C 414.316,1354.29 451.074,1134.03 497.871,853.512 516.367,742.648 536.426,622.41 548.789,478.98 557.363,379.242 561.25,299.449 562.285,230.75 563.301,162.129 561.484,104.941 558.691,50.1016 557.832,33.1797 557.09,16.4883 556.445,0 h -14.14 c 0.644,16.7305 1.386,33.6602 2.265,50.8203 2.793,54.7187 4.61,111.6917 3.594,179.7617 -1.035,67.957 -4.902,147.348 -13.496,247.227 -12.324,143.082 -32.305,262.902 -50.742,373.371 -47.129,282.4 -84.121,504.13 41.816,894.76 z m -182.578,6.69 h -0.078 c -2.246,117.96 -39.902,426.88 -66.289,643.44 -4.59,37.66 -8.848,72.55 -12.52,103.14 -28.496,237.84 -10.957,470.79 7.071,710.55 21.406,284.49 43.554,578.64 -9.922,901.18 -26.641,160.81 -20.469,412.12 2.226,674.3 28.614,330.42 83.477,678.4 131.934,884.05 h 14.551 c -48.496,-204.67 -103.672,-553.77 -132.364,-885.27 -22.617,-261.23 -28.828,-511.34 -2.402,-670.8 53.77,-324.28 31.563,-619.23 10.098,-904.52 -17.989,-239.06 -35.449,-471.31 -7.129,-707.83 3.672,-30.58 7.93,-65.47 12.519,-103.14 26.329,-216.06 63.848,-523.98 66.329,-643.83 h 0.156 c 0,-213.81 7.422,-315.83 18.398,-466.71 3.867,-53.21 8.184,-112.51 12.813,-185.63 3.925,-61.89 9.98,-134.591 16.504,-212.912 24.726,-296.589 56.132,-673.566 5.312,-887.667531 L 410.137,0 h -14.551 l 0.996,4.24219 C 446.895,216.172 415.586,591.898 390.938,887.492 c -6.485,77.848 -12.52,150.148 -16.504,213.178 -4.571,72.25 -8.907,131.95 -12.813,185.52 -10.976,151.04 -18.418,253.29 -18.457,466.44 z M 0,237.129 V 504.25 C 1.36719,472.391 2.65625,443.691 3.86719,418.859 11.1133,271.68 20.7812,134.02 30.7031,0 H 16.5039 C 10.7812,77.332 5.15625,155.93 0,237.129 Z M 173.418,5669.29 h 14.121 c 15.449,-466.5 27.305,-894.87 0.234,-1106.6 l -3.476,-27.18 C 169.98,4423.3 156.875,4322.59 144.805,4229.79 34.3359,3380.38 9.64844,3190.64 131.426,2532.56 c 11.347,-61.38 25.644,-123.2 39.922,-184.97 45.566,-197.06 91.015,-393.71 43.73,-588.48 l 0.391,-0.12 C 136.816,1514.8 161.172,787.711 183.848,110.492 185.098,73.4805 186.328,36.6211 187.539,0 h -14.121 l -3.691,110.051 C 164.805,256.98 159.824,406.25 155.801,552.461 148.633,498.23 138.438,445.609 127.93,391.398 105.898,277.789 82.5195,157.109 83.125,0 H 69.0039 c -0.6445,158.422 22.8711,279.789 45.0391,394.059 19.336,99.839 37.637,194.23 37.637,303.082 h 0.508 c -10.567,469.329 -6.7,886.729 49.023,1063.579 l -0.273,0.06 c 47.167,192.03 1.953,387.64 -43.379,583.66 -14.258,61.7 -28.536,123.46 -40.039,185.58 -122.16844,660.24 -97.4419,850.39 13.281,1701.59 12.226,94.05 25.508,196.14 39.492,305.67 l 3.477,27.18 c 26.933,210.73 15.078,638.73 -0.352,1104.83 z m -104.4141,0 H 83.125 c 0.0977,-21.91 0.6445,-44.53 1.7383,-67.94 10.9961,-236.54 19.2387,-472.31 24.2187,-708.84 4.98,-236.37 6.738,-473.36 4.844,-712.52 C 113.34,4105.62 77.4609,3921.74 35.4102,3706.18 23.8672,3647.05 11.875,3585.52 0,3523.23 v 75.07 c 7.26562,37.51 14.4727,74.5 21.5039,110.59 41.9531,214.99 77.7344,398.37 78.3008,471.22 1.8943,238.96 0.1367,475.83 -4.8438,712.12 -4.9804,236.11 -13.2031,471.79 -24.2187,708.52 -1.0938,23.62 -1.6602,46.44 -1.7383,68.54 z M 5364.59,2612.41 c -4.55,-53.05 -6.74,-103.43 -5.5,-149.79 2.07,-77.37 -3.02,-180.23 -8.42,-289.47 -9.03,-182.48 -18.94,-382.91 2.2,-510.4 40.99,-247.19 21.59,-391.39 1.51,-540.62 -34.92,-259.579 -22.4,-356.028 5.7,-617.15 l 4.09,-38.039 c 11.88,-111.062 26.29,-241.41 41.72,-380.0504 31.38,111.0894 49.52,241.4884 58.84,375.6294 13.18,189.941 8.67,387.281 -1.05,548.03 l -0.47,7.78 c -11.79,195.19 -20.23,334.62 -45.39,544.39 l -2.3,19.2 c -17.74,147.9 -10.73,287.91 -3.82,425.88 10.02,200.19 19.81,396.07 -47.11,604.61 z M 5409.71,52.6211 5415.58,0 h -14.24 c -18.93,169.699 -36.83,330.859 -51.23,465.43 l -4.09,38.05 c -30.07,279.469 -42.34,347.829 -5.65,620.53 19.93,148.16 39.2,291.32 -1.45,536.47 -21.38,128.93 -11.43,330.14 -2.37,513.32 5.4,109.08 10.48,211.75 8.43,288.49 -4.18,155.92 29.77,355.69 62.79,550.09 30.89,181.78 60.97,358.87 58.17,489.82 -3.51,163.7 16.25,330.15 35.23,490.14 16.25,136.9 31.94,269.07 31.94,390.33 0,106.1 -63.27,672.89 -121.23,1192.23 l -10.54,94.39 h 14.24 l 10.36,-92.84 c 58.02,-519.83 121.34,-1087.15 121.34,-1193.78 0,-121.96 -15.74,-254.61 -32.05,-391.99 -18.94,-159.65 -38.66,-325.74 -35.17,-488.2 2.83,-132.4 -27.35,-310.06 -58.34,-492.42 -20.82,-122.56 -42,-247.26 -53.71,-361.44 4.17,-8.02 6.45,-20.91 8.11,-25.99 69.82,-213.2 59.87,-412.14 49.69,-615.5 -6.87,-137.31 -13.84,-276.68 3.77,-423.55 l 2.3,-19.2 c 25.18,-209.87 33.63,-349.61 45.44,-545.22 l 0.48,-7.79 c 9.75,-161.249 14.27,-359.218 1.05,-549.788 -10.17,-146.312 -30.8,-288.352 -67.56,-406.2422 -0.32,-1.0507 -0.88,-1.9687 -1.58,-2.7187 z M 770.625,911.25 c 11.582,79.852 16.328,159.07 22.695,265.37 1.7,28.18 3.496,58.24 5.528,89.95 3.984,62.61 9.961,134.34 16.406,211.59 24.687,295.83 56.133,672.53 5.723,884.84 -48.692,205.09 -104.122,555.6 -132.93,888.3 -22.695,262.17 -28.867,513.48 -2.227,674.28 45.606,275.15 44.219,579.48 29.258,879.39 -10.078,-78.88 -27.715,-177.39 -44.57,-279.82 -17.403,-105.64 -37.871,-215.12 -57.52,-310.62 -32.461,-157.76 -48.711,-261.7 -63.476,-423.02 -11.992,-131.41 -22.559,-246.81 -22.559,-431.5 v -15.75 c 0,-156.48 31.602,-346.41 64.141,-542.15 36.426,-219.02 74.043,-445.32 70.234,-641.07 -2.031,-104.57 3.711,-236.14 9.59,-370.63 5.254,-120.41 10.605,-243.16 10.605,-350.62 0,-139.08 35.938,-292.67 63.321,-409.72 10.801,-46.218 20.293,-86.808 25.781,-118.82 z M 1049.71,453.789 c 6.85,58.832 13.08,124.102 11.48,179.801 h -0.06 c 0,47.699 -0.06,74.41 -0.11,99.172 -0.22,77.398 -0.38,136.726 1.09,193.617 0.19,7.203 0.41,14.359 0.64,21.5 -0.25,9.93 -0.04,18.953 0.71,26.98 0.06,0.641 0.19,1.262 0.41,1.84 1.46,32.601 3.59,65.821 6.7,102.571 4.72,55.92 11.68,120.22 21.87,203.05 29.4,238.82 23.71,456.8 2.79,659.61 -29.33,-78.29 -57.91,-179.98 -81.4,-280.43 -29.924,-127.93 -51.623,-253.68 -56.232,-326.41 l -1.797,-27.86 C 941.25,1083.42 911.25,621.559 1049.71,453.789 Z M 5669.3,5174.95 v -37.74 c -69.13,170.31 -139.4,355.83 -170.59,532.08 h 14.39 c 29.17,-163.13 92.06,-334.6 156.2,-494.34 z M 56.8945,5035.62 c -7.2851,190.69 -20.6836,369.75 -34.414,553.56 -1.9922,26.59 -3.9844,53.27 -5.9766,80.11 h 14.1992 c 1.9531,-26.47 3.9258,-52.81 5.8789,-79.05 15.9766,-213.56 31.4453,-420.7 37.4805,-648.47 7.7344,-293 -30,-573.01 -74.0625,-844.37 v 90.24 c 37.5977,243.22 66.8164,493.58 59.9414,753.8 -0.5078,18.92 -1.0742,37.7 -1.6992,56.37 -6.8555,11.56 -14.5313,32.72 -15.8789,35.98 -2.3828,5.82 -4.9219,12 -7.4414,18.14 C 23.4375,5079.84 11.7383,5108.31 0,5137.21 v 37.74 c 16.0938,-40.06 32.2461,-79.39 47.9883,-117.65 l 8.9062,-21.68 z M 5513.1,0 h -14.38 c -3.69,20.832 -6.84,41.5391 -9.37,62.0703 -5.16,41.9497 -7.8,130.3207 -7.8,218.5777 0,86.942 2.57,173.981 7.8,216.582 5.01,40.731 10.59,83.168 16.1,125.168 12.69,96.75 25.11,191.282 34.88,301.301 6.48,72.793 9.77,146.631 13.11,221.271 3.31,74.3 6.67,149.41 13.17,224.76 l 0.02,0.22 c 2.17,24.94 9.75,79.07 20.87,124.85 4.78,19.66 10.27,37.88 16.36,51.83 3.42,7.88 11.08,19.11 15.08,23.98 -2.12,67.92 -3.96,126.29 -5.41,171.19 h -0.01 v 0.26 l -0.01,0.4 h 0.01 c -0.14,47.81 -15.23,133.68 -31.56,226.59 -20.38,115.96 -42.68,242.87 -40.53,322.46 1.48,54.69 3.66,119.98 5.99,190.22 3.75,112.66 7.93,238.09 10.3,351.47 l -0.31,-0.05 c -53.7,361.91 7.67,727.37 71.7,1108.61 13.64,81.21 27.39,163.13 40.19,245.88 v -90.24 c -8.61,-52.97 -17.45,-105.62 -26.23,-157.96 -59.22,-352.59 -116.15,-691.64 -81.47,-1026.04 13.87,186.18 61.53,446.11 107.7,684.9 v -75.07 c -48.07,-252.29 -93.89,-517.06 -97.37,-685.91 -2.36,-114.96 -6.6,-242.04 -10.4,-356.03 -2.34,-70.49 -4.52,-135.99 -5.98,-190.12 -2.11,-78 20.08,-204.27 40.37,-319.68 16.51,-94.01 31.77,-180.85 31.77,-229.69 h -0.02 c 1.55,-48.41 3.67,-115.99 6.13,-194.96 9.53,-304.83 24.4,-780.719 35.5,-1042.59 V 237.121 c -3.73,58.84 -7.2,119.02 -10.26,181.078 -11.23,228.442 -28.66,786.051 -39.35,1128.261 l -0.03,0.79 c -6.73,-13.11 -12.97,-33.32 -18.43,-55.77 -10.92,-44.92 -18.36,-98.23 -20.49,-122.77 l -0.02,-0.2 c -6.55,-76 -9.88,-150.47 -13.17,-224.14 -3.33,-74.62 -6.63,-148.44 -13.16,-221.878 -9.84,-110.703 -22.24,-205.191 -34.93,-301.91 -5.21,-39.703 -10.48,-79.793 -16.04,-125.07 -5.17,-41.973 -7.7,-128.371 -7.7,-214.864 0,-87.808 2.61,-175.519 7.7,-216.8668 2.6,-21.082 5.85,-42.3593 9.68,-63.7812 z M 868.574,64.1914 C 868.516,106.531 847.051,227.641 820.898,354.43 791.445,497.309 756.074,647.039 738.711,699.5 729.121,665.75 717.949,629.34 704.844,589.172 641.055,393.609 654.355,371.129 665.625,169.262 668.652,114.859 671.953,56.082 675.098,0 h -14.16 c -3.145,55.8398 -6.407,114.332 -9.434,168.48 -11.348,203.61 -24.531,227.54 39.883,425.059 35.879,110.02 57.246,191.731 71.093,267.859 -0.664,1.082 -1.054,2.364 -1.054,3.731 0,31.859 -13.574,89.902 -30.371,161.731 -27.559,117.76 -63.711,272.28 -63.711,412.93 0,108.15 -5.313,230.25 -10.547,350.02 -5.879,134.62 -11.621,266.32 -9.57,371.44 3.769,194.42 -33.75,420.13 -70.079,638.6 -32.656,196.41 -64.355,386.99 -64.355,544.41 v 15.75 c 0,184.73 10.605,300.71 22.676,432.77 25.957,283.96 72.343,438.61 121.093,734.63 25.489,154.84 52.774,300.57 52.793,382.34 -5.82,98.22 -12.656,195.54 -19.375,290.75 -5.019,71.45 -9.98,141.73 -14.375,210.72 -0.976,15.67 -7.46,129.85 -14.667,258.07 h 14.16 c 7.168,-127.54 13.613,-241.13 14.629,-257.18 4.355,-68.41 9.316,-138.95 14.375,-210.67 6.699,-95.23 13.554,-192.56 19.375,-290.81 0.039,-0.28 0.039,-0.56 0.039,-0.85 v -0.01 c 19.726,-333.74 27.382,-678.04 -23.731,-986.45 -26.445,-159.47 -20.234,-409.58 2.383,-670.8 28.75,-332.03 84.043,-681.72 132.598,-886.26 50.918,-214.48 19.375,-592.45 -5.391,-889.27 -6.484,-77.7 -12.5,-149.87 -16.426,-211.3 -2.07,-32.63 -3.847,-62.19 -5.508,-89.9 -10.996,-183.63 -17.187,-286.95 -61.777,-451.239 3.398,-9.992 10.625,-33.922 11.367,-36.43 18.75,-63.301 50.742,-200.07 77.715,-330.859 24.219,-117.5 44.453,-230.422 47.539,-281.4026 l 0.625,-0.0586 C 882.754,73.9609 884.297,44.4609 886.777,0 h -14.101 c -1.446,26.1914 -2.578,47.2812 -3.223,60.7695 -0.566,1.0117 -0.879,2.1719 -0.879,3.4219 z M 4234.63,193.512 c -0.23,-1.293 -0.48,-2.692 -0.72,-4.203 l -0.44,-3.289 c 0.23,-19.18 2.18,-38.18 4.39,-57.208 6.01,-51.7417 9.78,-93.2925 12.02,-128.812 h -14.19 c -2.13,33.3906 -5.61,72.1719 -11.05,119.832 C 4219.13,79.082 4213.62,39.2305 4208.19,0 h -15.04 c 4.29,30.6719 8.27,59.8906 11.86,86.3008 6.27,46.1602 11.41,83.8902 14.8,104.3472 7.5,57.184 14.95,116.442 22.17,178.614 1.51,13.027 3.04,25.41 4.64,38.5 8.46,68.828 19.06,155.047 17.04,225.828 h -0.06 c 0,47.699 -0.07,74.41 -0.12,99.172 -0.21,77.398 -0.37,136.726 1.1,193.617 1.34,52.422 4.03,100.451 8.46,152.881 4.65,55.19 11.49,118.55 21.46,199.8 -52.24,-93.31 -83.5,-330.83 -103.92,-486.08 -7.49,-56.929 -13.55,-102.91 -18.7,-127.011 -2.36,-11.09 -4.63,-21.637 -6.79,-31.727 -23.19,-107.941 -35,-162.902 -43.46,-283.113 -2.66,-37.727 -10.47,-85.41 -18.19,-132.559 -8.79,-53.648 -17.46,-106.59 -18.15,-142.7614 l 0.09,-0.0078 c -0.17,-1.8399 1.38,-31.3399 3.87,-75.8008 h -14.1 c -1.78,32.1289 -3.08,56.6094 -3.6,68.75 -0.31,0.8008 -0.48,1.6602 -0.48,2.5703 0,37.1017 9.14,92.9417 18.41,149.5117 7.67,46.777 15.41,94.078 18.03,131.227 8.53,121.261 20.42,176.562 43.74,285.121 2.16,10.082 4.43,20.629 6.8,31.73 5.07,23.809 11.08,69.41 18.51,125.899 22.33,169.64 57.45,436.641 120.43,513.291 0.31,0.38 0.66,0.71 1.02,1.01 14.18,129.06 28.86,354.51 40.84,588.37 7.31,142.8 13.62,288.77 18.18,417.92 l 0.1,2.69 c 4.84,137.32 7.7,255.4 7.7,329.99 0,119.29 -0.63,276.85 -9.66,432.9 -9.04,156.06 -26.47,311.03 -60.02,425.59 l -0.23,0.76 -0.05,0.65 c -1.27,15.94 -18.54,78.71 -41.08,160.67 -39.99,145.37 -96.49,350.71 -110.74,466.66 -32.65,265.42 -32.14,446.35 -31.61,637.39 0.35,127.84 0.72,260.23 -8.9,425.97 h -0.01 l -3.5,59.36 c -6.05,102.57 -17.81,301.57 -23.88,411.26 h 14.1 c 6.09,-108.98 17.84,-307.94 23.9,-410.43 l 3.5,-59.36 v -0.03 c 8,-137.7 9.1,-252.62 9.03,-361.06 1.16,4.88 2.37,10.25 3.64,15.93 9.56,42.92 20.15,101.78 21.49,110.93 l 0.58,3.94 c 9.26,63.24 11.36,112.2 14,173.48 v 0.09 l 0.49,11.33 c 0.68,15.7 0.69,40.87 0.7,72.6 0.04,98.18 0.11,258.72 19.73,394.4 2.35,16.32 4.65,32.44 6.84,48.18 h 14.28 c -2.31,-16.63 -4.7,-33.47 -7.12,-50.18 -19.5,-134.93 -19.57,-294.69 -19.61,-392.4 -0.02,-32.07 -0.03,-57.51 -0.7,-73.21 l -0.49,-11.32 -0.01,-0.06 c -2.65,-61.87 -4.78,-111.3 -14.1,-174.96 l -0.58,-3.93 c -1.34,-9.16 -12.03,-68.4 -21.72,-111.94 -2,-8.98 -4.01,-17.36 -5.96,-24.62 -2.62,-9.74 -7.77,-24.14 -11.54,-32.45 l -0.04,-21.52 c -0.53,-190.4 -1.04,-370.74 31.55,-635.68 0.69,-5.67 1.5,-11.57 2.39,-17.66 4.45,94.1 17.5,166.32 29.91,235.02 15.3,84.62 29.62,163.87 25.39,272.6 l -0.57,14.79 c -3.42,87.77 2.81,205.34 9.27,327.25 6.22,117.33 12.64,238.71 10.88,340.86 -1.41,82.43 0.53,137.06 2.23,184.91 1.99,56.16 3.65,102.93 -0.92,174.5 h 14.19 c 4.51,-71.53 2.84,-118.58 0.84,-175 -1.69,-47.74 -3.63,-102.25 -2.21,-184.19 1.76,-102.86 -4.67,-224.36 -10.89,-341.8 -6.45,-121.65 -12.67,-238.96 -9.28,-326.04 l 0.58,-14.78 c 4.28,-110.18 -10.17,-190.17 -25.61,-275.59 -15.13,-83.75 -31.22,-172.77 -31.22,-301.13 0,-0.44 -0.04,-0.86 -0.12,-1.28 23.3,-114.91 64.37,-264.18 95.43,-377.12 22.49,-81.76 39.79,-144.61 41.53,-162.6 33.76,-115.68 51.28,-271.37 60.35,-428 9.09,-156.97 9.72,-314.49 9.72,-433.68 0,-55.57 -1.6,-135.42 -4.42,-229.49 10.82,47.62 25.52,104.9 40.83,164.61 31.29,121.94 65.19,254.05 73.55,332.93 31.8,299.63 -26.63,521.73 -85.67,746.18 -80.16,304.73 -161.45,613.8 -22.05,1126.21 3.7,13.63 11.7,33.04 16.59,48.15 3.02,155.74 24.47,298.65 43.37,424.44 18.68,124.4 34.84,231.98 27.97,317.92 -0.04,0.59 -0.02,1.16 0.08,1.72 -0.05,0.32 -0.08,0.65 -0.08,0.99 0,26.14 -2.04,55.57 -5.72,87.55 h 14.2 c 3.63,-31.9 5.64,-61.32 5.64,-87.55 0,-0.35 -0.03,-0.68 -0.08,-1.01 0.04,-0.2 0.06,-0.39 0.08,-0.59 7,-87.57 -9.27,-195.89 -28.09,-321.14 -30.43,-202.59 -67.55,-449.75 -22.92,-722.51 26.91,-164.39 66.77,-346.56 117.09,-505.78 38.4,-121.51 82.83,-229.48 132.12,-305.66 -7.61,168.41 -19.62,328.92 -31.89,493.23 -11.86,158.68 -23.99,320.91 -32.72,498.31 -9.47,192.47 -23.33,618.6 -33.85,952.7 h 14.12 c 10.52,-333.75 24.36,-759.26 33.85,-952.04 8.68,-176.25 20.83,-338.87 32.72,-497.91 15.96,-213.56 31.44,-420.7 37.46,-648.46 9.25,-350.2 -46.45,-681.86 -100.28,-1002.34 -59.22,-352.6 -116.14,-691.64 -81.46,-1026.06 16.04,215.43 77.33,529.61 129.2,795.51 41.94,214.99 77.72,398.37 78.29,471.22 1.91,238.96 0.15,475.83 -4.84,712.12 -4.98,236.11 -13.2,471.79 -24.22,708.51 -8.98,192.97 18.05,332.39 43.29,462.61 19.35,99.84 37.65,194.23 37.65,303.09 h 0.5 c -5.58,248.46 -7.13,482.37 0.92,673.75 h 14.07 c -14.22,-337.77 1.59,-810.09 16.68,-1260.41 17.03,-508.39 33.12,-988.74 3.92,-1217.1 l -3.47,-27.17 c -14.32,-112.21 -27.43,-212.92 -39.5,-305.73 -110.48,-849.39 -135.15,-1039.14 -13.39,-1697.22 11.36,-61.38 25.66,-123.2 39.94,-184.969 42.97,-185.882 85.87,-371.39 50.9,-555.3 -1.86,-9.782 -3.79,-23.922 -6.99,-33.243 l 0.2,-0.058 C 4816.24,306.27 4801.46,170.199 4794.3,0 h -14.07 c 7.19,170.961 21.8,308.129 48.26,391.219 46.45,191.461 1.38,386.922 -43.79,582.312 -14.27,61.719 -28.56,123.469 -40.05,185.589 -122.17,660.24 -97.43,850.38 13.28,1701.59 12.23,94.05 25.52,196.14 39.48,305.67 l 3.48,27.18 c 29.05,227.23 12.98,707.05 -4.04,1214.88 -4.91,146.94 -9.91,296.22 -13.91,442.43 -7.18,-54.24 -17.37,-106.86 -27.88,-161.07 -25.1,-129.48 -51.97,-268.09 -43.08,-459.35 11.02,-236.55 19.24,-472.32 24.23,-708.85 4.98,-236.35 6.74,-473.35 4.83,-712.51 -0.58,-74.37 -36.46,-258.25 -78.5,-473.81 -58.26,-298.67 -128.43,-658.32 -132.77,-868.87 -2.37,-114.95 -6.61,-242.03 -10.4,-356.02 -2.34,-70.5 -4.53,-135.992 -5.99,-190.109 -2.1,-78.011 20.09,-204.289 40.37,-319.699 16.52,-94 31.79,-180.844 31.79,-229.691 h -0.04 c 1.56,-48.411 3.67,-115.981 6.14,-194.95 1.69,-53.992 3.54,-113.3512 5.51,-175.941 h -14.12 c -1.98,62.4414 -3.82,121.672 -5.51,175.559 -2.44,78.273 -4.53,145.211 -6.15,195.332 h -0.01 v 0.269 l -0.01,0.399 h 0.01 c -0.14,47.812 -15.24,133.671 -31.57,226.589 -20.38,115.961 -42.67,242.864 -40.52,322.461 1.47,54.7 3.65,119.981 5.98,190.221 3.75,112.66 7.93,238.09 10.32,351.47 l -0.33,-0.05 c -53.7,361.91 7.68,727.36 71.71,1108.61 53.72,319.88 109.32,650.93 100.11,999.68 -1.14,43.16 -2.62,85.62 -4.38,127.57 -55.36,78 -104.76,195.25 -146.81,328.33 -50.49,159.76 -90.51,342.66 -117.53,507.78 -14.69,89.72 -20.61,176.6 -20.86,260.01 -141.95,-514.41 -60.67,-823.56 19.49,-1128.32 59.38,-225.71 118.13,-449.06 86.06,-751.27 -8.47,-79.72 -42.51,-212.43 -73.95,-334.93 -30.16,-117.6 -57.91,-225.73 -57.91,-266.92 0,-0.45 -0.04,-0.88 -0.12,-1.31 -4.57,-128.32 -10.83,-273.04 -18.08,-414.71 -12.88,-251.53 -28.88,-493.26 -44.01,-616.17 -10.17,-82.66 -17.11,-146.78 -21.8,-202.5 -18.24,-216.19 29.05,-357.729 81.99,-568.58 44.68,-177.93 92.43,-368.11 108.5,-509.52 h -14.2 c -16.12,140.062 -63.61,329.16 -108.03,506.09 -31.59,125.82 -61.65,245.5 -77.87,337.629 -0.16,-33.418 -0.07,-69.61 0.04,-110.957 0.09,-35.121 0.19,-73.703 0.19,-98.793 2.05,-72.09 -8.6,-158.75 -17.1,-227.93 -1.73,-14.039 -3.38,-27.469 -4.65,-38.391 -6.93,-59.769 -14.1,-116.929 -21.32,-172.199 0.06,-0.629 0.04,-1.289 -0.08,-1.937 z M 2609.47,152.289 c -2.69,13.082 -9.51,37.262 -11.81,51.121 -10.39,62.512 -19.16,137.141 -25.51,212.07 -8.09,95.352 -12.29,191.418 -10.96,263.711 1.97,107.821 -0.14,214.739 -2.21,321.409 -2.44,124.34 -4.88,248.4 -0.86,373.37 7.23,225.59 34.89,390.11 71.04,605.19 l 5.16,30.8 c 13.43,80.04 23.08,191.74 33.16,308.58 16,185.28 33.11,383.48 68.61,491.72 1.04,3.19 4.77,15.68 9.34,25.96 2.17,4.83 4.51,9.18 6.85,11.82 -1.28,74.6 -3.69,153.96 -8.28,232.94 -9.02,156.06 -26.44,311.03 -60,425.59 l -0.23,0.76 -0.04,0.65 c -0.86,10.77 -9.04,42.93 -21.19,87.95 -0.55,-3.66 -1.17,-7.44 -1.91,-11.28 l -0.04,-0.31 c -78.44,-384.74 -151.92,-847.48 -201.45,-1319.73 -42.66,-406.51 -67.54,-819.98 -62.54,-1196.64 0.27,-20.45 0.43,-41.67 0.51,-63.54 0.12,-0.74 0.14,-1.49 0.02,-2.22 0.06,-17.358 0.04,-35.159 -0.02,-53.312 0.37,-0.476 0.7,-1.019 0.96,-1.609 6.85,-16.109 11.89,-27.738 16.56,-38.547 44.61,-102.972 64.51,-148.933 64.51,-292.113 0,-66.258 -3.91,-132.047 -7.75,-196.879 -3.7,-62.52 -7.37,-124.16 -7.37,-185.051 0,-32.668 2.76,-61.617 5.37,-89.07 2.31,-24.047 4.48,-46.9688 4.69,-69.8204 l 0.14,-0.0078 C 2474.06,73.9609 2475.6,44.4609 2478.09,0 h -14.11 c -1.81,33.0508 -3.14,58 -3.63,69.75 -0.27,0.75 -0.41,1.5703 -0.41,2.4102 0,23.9296 -2.25,47.4298 -4.61,72.1408 -2.65,28.031 -5.49,57.597 -5.49,90.398 0,60.762 3.69,122.883 7.44,185.883 3.81,64.359 7.7,129.668 7.7,196.047 0,140.391 -19.55,185.5 -63.3,286.531 l -4.77,11.02 c -1.64,-218 -11.32,-482.961 -26.93,-721.95 C 2365.62,125.629 2360.82,61.0391 2355.59,0 h -14.18 c 5.25,61.2617 10.07,126.16 14.45,193.121 17.73,271.539 27.83,576.391 27.15,807.589 -208.56,226.85 -164.89,787.33 -124.2,1309.04 26.21,336 51.15,655.85 6.6,858.04 -5.27,23.91 -10.72,48 -15.55,68.98 -2.07,9.01 -4.04,17.57 -5.86,25.41 -5.88,-82.09 -11.72,-164.98 -17.57,-248.2 -34.93,-495.21 -70.67,-1002.13 -119.03,-1421.99 -53.67,-465.85 66.31,-922.06 116.45,-1112.701 18.65,-70.918 20.37,-80.398 24.02,-146.91 2.23,-40.399 5.47,-98.688 9.06,-163.117 3.03,-54.403 6.33,-113.18 9.48,-169.262 h -14.16 c -3.13,55.8398 -6.41,114.332 -9.44,168.48 -3.59,64.43 -6.83,122.731 -9.06,163.11 -3.73,67.859 -4.47,71.441 -23.57,144.101 -50.34,191.399 -170.81,649.449 -116.84,1117.909 48.32,419.54 84.06,926.31 118.96,1421.38 9.18,130.15 18.3,259.5 27.58,386.25 9.36,128 21.08,251.16 32.44,370.82 21.06,221.51 40.98,431.03 43.17,643.3 2.69,261.27 -16.29,530.7 -34.2,785.1 -5.02,71.47 -9.98,141.77 -14.36,210.77 -0.99,15.67 -7.48,129.85 -14.68,258.07 h 14.18 c 7.16,-127.54 13.59,-241.14 14.6,-257.18 2.86,-44.79 5.98,-90.48 9.2,-136.81 3.97,19.22 8.05,43.65 11.61,63.34 14.82,82.07 28.18,197.77 39.57,330.65 h 14.18 c -11.22,-131 -24.34,-245.55 -38.93,-328.08 -5,-28.2 -16.99,-91.49 -22.97,-115.33 l 1.72,-24.49 c 17.91,-254.46 36.89,-523.96 34.2,-786.15 -2.21,-212.96 -22.15,-422.74 -43.22,-644.51 -11.31,-118.93 -22.93,-241.33 -32.39,-370.5 -2.2,-30.11 -4.41,-60.36 -6.6,-90.74 l 0.08,-0.24 c 0.53,-2.04 7.62,-31.99 16.17,-69.33 5.2,-22.62 10.78,-47.27 15.59,-69.09 45,-204.19 19.98,-525.06 -6.31,-862.14 -39.75,-509.76 -82.36,-1056.71 109.98,-1286.48 -0.08,15.58 -0.23,30.78 -0.43,45.6 -5,377.33 19.9,791.32 62.6,1198.25 12.17,116.03 25.78,231.49 40.56,345.38 -1.09,1.25 -1.77,2.88 -1.77,4.68 0,14.58 -6.59,118.5 -7.39,135.74 -2.79,58.75 -10.29,132.11 -20.07,208.88 -20.16,158.1 -49.97,330.47 -68.17,420.09 -38.22,187.97 -38.69,373.47 -15.66,556.64 20.97,166.94 61.44,331.96 110.64,495.15 5.88,19.5 14.26,37.5 20.18,56.3 -3.62,99.53 -3.38,190.46 -3.11,283.78 0.35,127.84 0.73,260.23 -8.9,425.97 v 0 l -3.5,59.36 c -6.07,102.57 -17.83,301.57 -23.91,411.26 h 14.11 c 6.09,-108.98 17.85,-307.94 23.9,-410.43 l 3.5,-59.36 v -0.03 c 5.17,-88.83 7.46,-168.18 8.42,-242.43 3.41,12.44 6.91,26.79 10.21,41.29 7.68,33.72 14.36,68.51 17.03,82.47 12.95,67.7 16.33,129.56 19.88,194.72 0.92,17.1 1.88,34.45 2.95,51.36 2.5,39.31 5.28,78.68 8.05,118.19 5.29,75.15 10.61,150.85 14,224.22 h 14.15 c -3.42,-74.51 -8.75,-150.11 -14.03,-225.16 -2.79,-39.78 -5.58,-79.42 -8.05,-118.13 -1.15,-17.93 -2.05,-34.67 -2.96,-51.2 -3.58,-65.72 -6.98,-128.12 -20.1,-196.65 -2.66,-13.92 -9.3,-48.58 -17.13,-82.92 -7.56,-33.17 -16.23,-65.85 -23.59,-79.12 0.35,-49.33 0.21,-96.67 0.07,-143.41 -0.52,-190.4 -1.01,-370.74 31.57,-635.68 0.7,-5.67 1.5,-11.57 2.4,-17.66 4.43,94.1 17.5,166.32 29.9,235.02 15.29,84.62 29.63,163.87 25.39,272.6 l -0.58,14.79 c -3.42,87.77 2.81,205.34 9.27,327.25 6.21,117.33 12.66,238.71 10.9,340.86 -1.42,82.43 0.51,137.06 2.21,184.91 2.01,56.16 3.65,102.93 -0.9,174.5 h 14.18 c 4.51,-71.53 2.85,-118.58 0.84,-175 -1.7,-47.74 -3.63,-102.25 -2.23,-184.19 1.78,-102.86 -4.66,-224.36 -10.88,-341.8 -6.44,-121.65 -12.67,-238.96 -9.27,-326.04 l 0.58,-14.78 c 4.28,-110.18 -10.17,-190.17 -25.6,-275.59 -15.14,-83.75 -31.23,-172.77 -31.23,-301.13 0,-0.44 -0.04,-0.86 -0.12,-1.28 23.3,-114.91 64.36,-264.18 95.43,-377.12 22.48,-81.76 39.78,-144.61 41.52,-162.6 33.77,-115.68 51.29,-271.37 60.36,-428 9.08,-156.97 9.72,-314.49 9.72,-433.68 0,-55.57 -1.6,-135.43 -4.43,-229.5 10.82,47.62 25.53,104.91 40.84,164.62 31.28,121.94 65.17,254.05 73.54,332.93 31.81,299.63 -26.62,521.73 -85.65,746.18 -80.18,304.8 -161.51,613.94 -21.97,1126.57 3.96,14.58 12.05,39.8 16.66,55.46 3.55,152.77 24.62,293.05 43.2,416.77 18.69,124.4 34.84,231.98 27.98,317.92 -0.05,0.59 -0.02,1.16 0.07,1.72 -0.05,0.32 -0.07,0.65 -0.07,0.99 0,26.14 -2.04,55.57 -5.74,87.55 h 14.21 c 3.63,-31.9 5.65,-61.32 5.65,-87.55 0,-0.35 -0.03,-0.68 -0.08,-1.01 0.03,-0.2 0.06,-0.39 0.07,-0.59 7,-87.57 -9.27,-195.89 -28.08,-321.14 -30.42,-202.59 -67.57,-449.75 -22.92,-722.51 26.91,-164.39 66.77,-346.56 117.09,-505.78 38.4,-121.51 82.82,-229.48 132.11,-305.66 -7.61,168.41 -19.61,328.92 -31.88,493.23 -11.87,158.68 -24,320.91 -32.73,498.31 -9.46,192.47 -23.33,618.6 -33.86,952.7 H 2986 c 10.51,-333.75 24.36,-759.26 33.84,-952.04 8.68,-176.25 20.83,-338.87 32.72,-497.91 15.96,-213.56 31.44,-420.7 37.47,-648.46 9.24,-350.2 -46.47,-681.86 -100.28,-1002.34 -59.04,-351.51 -115.8,-689.55 -81.79,-1022.94 18.72,297.55 103.62,783.83 153.81,1071.24 15.81,90.56 28.18,161.39 33.89,200.06 40,270.5 51.69,512.39 46.43,742.17 -5.25,229.7 -27.5,447.7 -55.35,670.21 -25.13,200.85 7.78,344.62 38.93,480.72 7.48,32.68 14.87,64.91 21.3,97.38 8.05,40.61 23.6,121.97 28.24,173.45 -7.59,254.59 -10.9,493.82 -3.98,688.46 h 14.05 c -12.18,-342.58 7.52,-825.43 26.33,-1286.37 21.43,-525.05 41.69,-1021.67 12.29,-1251.61 -19.87,-155.37 -40.34,-294.09 -59.45,-423.6 -78.75,-533.63 -134.49,-911.37 -17.06,-1546.05 11.36,-61.37 25.65,-123.19 39.93,-184.961 45.56,-197.058 91.02,-393.719 43.72,-588.48 l 0.4,-0.129 C 3205.08,306.27 3190.3,170.199 3183.14,0 h -14.07 c 7.16,170.082 21.89,306.602 48.09,389.832 l -0.26,0.059 c 47.18,192.039 1.95,387.64 -43.37,583.66 -14.26,61.699 -28.54,123.449 -40.03,185.569 -117.87,637.04 -62,1015.72 16.94,1550.63 19.24,130.36 39.84,270 59.45,423.33 29.24,228.74 9,724.81 -12.4,1249.28 -6.77,166.04 -13.66,334.91 -19.13,499.09 -9.07,-58.93 -24.71,-112.64 -38.9,-174.61 -30.88,-134.88 -63.49,-277.37 -38.66,-475.84 27.86,-222.65 50.13,-440.95 55.41,-671.65 5.28,-230.64 -6.44,-473.31 -46.53,-744.5 -5.78,-39.11 -18.16,-109.91 -33.96,-200.45 -54.87,-314.24 -151.31,-866.51 -157.11,-1147.99 -2.36,-115 -6.6,-242.15 -10.4,-356.17 -2.34,-70.43 -4.52,-135.881 -5.98,-189.959 -2.11,-78.011 20.08,-204.289 40.37,-319.699 16.51,-94 31.78,-180.844 31.78,-229.691 h -0.03 c 1.55,-48.411 3.67,-115.981 6.14,-194.95 C 2982.17,121.949 2984.02,62.5898 2986,0 h -14.14 c -1.96,62.4414 -3.81,121.672 -5.49,175.559 -2.44,78.273 -4.53,145.211 -6.16,195.332 h -0.01 v 0.668 c -0.14,47.812 -15.23,133.671 -31.56,226.589 -20.38,115.961 -42.67,242.864 -40.53,322.461 1.48,54.653 3.65,119.881 5.99,190.071 3.75,112.69 7.93,238.18 10.3,351.62 l -0.31,-0.05 c -53.7,361.91 7.68,727.36 71.7,1108.61 53.73,319.88 109.33,650.93 100.12,999.68 -1.14,43.16 -2.63,85.62 -4.4,127.57 -55.34,78 -104.74,195.25 -146.8,328.33 -50.49,159.76 -90.51,342.66 -117.52,507.78 -14.69,89.72 -20.61,176.6 -20.86,260.01 -141.95,-514.41 -60.69,-823.56 19.49,-1128.32 59.37,-225.71 118.13,-449.06 86.04,-751.27 -8.45,-79.73 -42.51,-212.43 -73.93,-334.93 -30.16,-117.6 -57.91,-225.73 -57.91,-266.92 0,-0.45 -0.04,-0.89 -0.12,-1.32 -4.57,-128.32 -10.84,-273.04 -18.08,-414.7 -12.89,-251.53 -28.89,-493.26 -44.01,-616.17 -10.17,-82.66 -17.11,-146.78 -21.81,-202.5 -4.03,-47.79 -6.43,-89.26 -7.82,-130.76 2.39,-89.641 44.52,-257.399 89.83,-437.82 C 2802.68,331.59 2850.43,141.41 2866.49,0 h -14.21 c -16.1,140.062 -63.59,329.16 -108,506.09 -31.6,125.82 -61.66,245.5 -77.87,337.629 -0.18,-33.418 -0.08,-69.61 0.04,-110.957 0.07,-35.121 0.17,-73.703 0.17,-98.793 2.05,-72.09 -8.59,-158.75 -17.09,-227.93 -1.72,-14.039 -3.38,-27.469 -4.65,-38.391 -7.26,-62.519 -14.76,-122.199 -22.32,-179.816 0.25,-21.531 2.3,-42.883 4.76,-64.281 5.65,-49.3205 9.24,-89.2424 11.41,-123.551 h -14.18 c -1.91,29.8594 -4.9,64.0312 -9.39,105 -1,-5.1211 -2.02,-10.1797 -3.03,-15.25 -5.02,-24.9609 -10.16,-50.4492 -11.9,-88.64844 L 2600.18,0 h -14.15 l 0.08,1.71094 c 1.8,39.19926 7.03,65.26956 12.17,90.80856 1.72,8.4685 3.4,16.8905 4.94,25.7105 1.62,9.211 4.75,22.59 6.25,34.059 z m -1594.74,5.332 -0.47,-0.211 c 2.13,16.051 3.81,38.61 5.92,55 6.54,50.422 13.02,102.531 19.33,156.852 1.51,13.027 3.05,25.41 4.65,38.5 1.09,8.968 2.25,18.226 3.38,27.718 -0.74,0.379 -1.43,0.899 -2.01,1.54 -149.671,165.722 -118.733,642.04 -103.85,871.09 l 1.797,27.87 c 4.668,73.51 26.484,200.15 56.563,328.73 24.43,104.5 54.37,210.44 85.04,290.38 2.28,5.97 4.59,11.78 6.87,17.44 -18.2,163.52 -45.8,317.19 -72.18,464.08 -25.727,143.19 -50.297,279.94 -63.911,413.06 -17.949,175.46 -9.804,342.34 -1.074,521.24 9.805,200.84 20.332,416.9 -4.648,677.08 -0.371,0.85 -0.567,1.79 -0.567,2.77 v 3.04 c -2.597,26.7 -5.586,53.85 -8.984,81.51 -32.637,265.42 -32.148,446.34 -31.621,637.38 0.351,127.84 0.723,260.24 -8.887,425.98 h -0.019 l -3.497,59.36 c -6.054,102.57 -17.812,301.57 -23.886,411.26 h 14.101 c 6.094,-108.98 17.852,-307.94 23.907,-410.43 l 3.496,-59.36 v -0.03 c 9.629,-165.79 9.258,-298.57 8.906,-426.78 -0.508,-188.84 -1.016,-367.79 30.762,-629.16 4.843,52.59 13.027,98.32 20.644,140.8 1.406,7.81 2.832,15.84 4.961,28.13 2.051,11.74 4.785,26.88 7.5,41.97 15.297,84.6 29.607,163.85 25.387,272.55 l -0.58,14.79 c -1.9,48.53 -0.82,106.17 1.58,168.62 -7.46,13.37 -15.488,40.25 -16.719,44.27 -51.426,167.43 -36.23,411.16 -23.672,612.9 3.086,49.62 6.035,96.71 7.754,138.97 0.918,22.37 3.633,43.06 7.129,62.76 h 14.378 c -3.636,-19.95 -6.468,-40.83 -7.386,-63.31 -1.758,-43.06 -4.687,-89.89 -7.754,-139.25 -12.871,-206.53 -28.476,-457.34 27.7,-622.23 1.79,40.27 4.02,82.13 6.26,124.52 6.22,117.33 12.64,238.71 10.88,340.86 -1.4,82.43 0.53,137.06 2.23,184.91 1.99,56.16 3.65,102.93 -0.92,174.5 h 14.2 c 4.51,-71.53 2.83,-118.58 0.84,-175 -1.7,-47.74 -3.63,-102.25 -2.23,-184.19 1.78,-102.86 -4.66,-224.36 -10.87,-341.8 -6.45,-121.65 -12.68,-238.96 -9.28,-326.04 l 0.56,-14.78 c 4.3,-110.16 -10.15,-190.14 -25.58,-275.54 -2.266,-12.46 -4.551,-25.17 -7.442,-41.86 -1.094,-6.23 -3.008,-16.96 -5.039,-28.24 -11.465,-64.07 -24.297,-135.65 -24.629,-227.43 25.684,-263.27 15.039,-481.44 5.156,-684.17 -8.711,-178.35 -16.836,-344.72 1.016,-519.13 10.176,-99.45 26.465,-200.89 44.788,-305.54 6.17,96.53 32.24,260.95 59.8,434.71 32.25,203.28 66.52,419.41 73.2,553.38 2.43,48.42 1.39,99.93 0.36,151.93 -2.04,103.2 -4.13,208.4 20.21,296.17 0.12,0.42 0.27,0.83 0.45,1.21 -60.23,202.67 -86.91,439.35 7.07,794.27 4.69,17.72 13.83,46.1 19.63,62.53 3.24,154.54 24.53,296.38 43.3,421.34 18.69,124.4 34.84,231.98 27.97,317.92 -0.04,0.59 -0.02,1.16 0.08,1.72 -0.04,0.32 -0.08,0.65 -0.08,0.99 0,26.14 -2.03,55.57 -5.72,87.55 h 14.2 c 3.63,-31.9 5.64,-61.32 5.64,-87.55 0,-0.35 -0.02,-0.68 -0.08,-1.01 0.04,-0.2 0.06,-0.39 0.08,-0.59 7.01,-87.57 -9.26,-195.89 -28.09,-321.14 -30.43,-202.59 -67.55,-449.75 -22.91,-722.51 26.9,-164.39 66.76,-346.56 117.09,-505.78 38.4,-121.51 82.82,-229.48 132.11,-305.66 -7.61,168.41 -19.61,328.92 -31.89,493.23 -11.86,158.68 -23.99,320.91 -32.72,498.31 -9.47,192.47 -23.34,618.6 -33.84,952.7 h 14.12 c 10.5,-333.75 24.35,-759.26 33.84,-952.04 8.68,-176.25 20.82,-338.87 32.72,-497.91 15.96,-213.56 31.44,-420.7 37.46,-648.46 9.26,-350.2 -46.44,-681.86 -100.27,-1002.34 -59.22,-352.6 -116.16,-691.64 -81.47,-1026.06 16.04,215.43 77.33,529.61 129.2,795.51 41.93,214.99 77.72,398.37 78.3,471.22 1.9,238.96 0.14,475.83 -4.84,712.12 -4.98,236.11 -13.2,471.79 -24.22,708.51 -8.98,192.97 18.05,332.39 43.28,462.61 19.36,99.84 37.66,194.23 37.66,303.09 h 0.49 c -5.57,248.46 -7.11,482.37 0.93,673.75 h 14.07 c -14.22,-337.72 1.58,-809.95 16.66,-1260.2 3.45,-102.9 6.85,-204.67 9.88,-303.84 5.88,-193.91 11.05,-393.55 10.53,-592.11 -0.51,-198.59 -6.74,-396.01 -23.66,-585.37 -10.8,-120.98 -23.3,-239.38 -35.68,-356.55 -50.9,-482.25 -99.63,-943.96 -13.5,-1409.56 11.37,-61.38 25.67,-123.22 39.95,-185 C 1640,786.398 1691.09,566.879 1636,374.48 1612.21,291.59 1598.61,161.082 1591.84,0 h -14.07 c 6.74,160.52 20.24,291.141 43.77,375.289 54.94,196.652 5.49,404.441 -39.31,598.211 -14.26,61.72 -28.56,123.49 -40.04,185.62 -86.53,467.6 -37.68,930.28 13.34,1413.54 12.42,117.77 24.98,236.78 35.66,356.33 16.88,188.9 23.09,385.92 23.61,584.15 0.51,198.25 -4.66,397.83 -10.54,591.73 -2.99,98.56 -6.43,200.6 -9.89,303.78 -4.9,146.87 -9.9,296.08 -13.9,442.22 -7.17,-54.24 -17.37,-106.86 -27.87,-161.07 -25.12,-129.48 -51.98,-268.09 -43.09,-459.35 11.02,-236.54 19.24,-472.32 24.24,-708.85 4.98,-236.35 6.74,-473.35 4.82,-712.51 -0.58,-74.37 -36.46,-258.25 -78.51,-473.81 -58.24,-298.67 -128.42,-658.32 -132.76,-868.87 -2.36,-114.95 -6.6,-242.03 -10.39,-356.02 -2.34,-70.5 -4.53,-135.992 -5.99,-190.109 -2.11,-78.011 20.08,-204.289 40.37,-319.699 16.52,-94 31.78,-180.844 31.78,-229.691 h -0.04 c 1.56,-48.411 3.67,-115.981 6.15,-194.95 1.68,-53.992 3.53,-113.3512 5.51,-175.941 h -14.12 c -1.98,62.4414 -3.83,121.672 -5.51,175.559 -2.44,78.273 -4.53,145.211 -6.15,195.332 h -0.02 v 0.668 c -0.14,47.812 -15.24,133.671 -31.57,226.589 -20.37,115.961 -42.67,242.864 -40.52,322.461 1.48,54.7 3.65,119.981 5.99,190.221 3.75,112.66 7.93,238.09 10.31,351.47 l -0.33,-0.05 c -53.69,361.91 7.68,727.36 71.7,1108.61 53.73,319.88 109.34,650.93 100.12,999.68 -1.13,43.16 -2.62,85.62 -4.38,127.57 -55.35,78 -104.76,195.25 -146.81,328.33 -50.49,159.76 -90.51,342.66 -117.54,507.78 -14.67,89.69 -20.59,176.53 -20.84,259.9 -137.79,-502.28 -34.69,-768.71 67.6,-1032.85 79.37,-204.98 158.22,-408.64 125.29,-718.95 -8.95,-84.37 -95.88,-308.49 -174.75,-511.85 -68.08,-175.53 -130.13,-335.51 -130.13,-373.93 0,-1.18 -0.3,-2.28 -0.8,-3.26 39.68,-261.82 64.23,-547.95 24.27,-872.68 -10.17,-82.65 -17.11,-146.78 -21.81,-202.49 -4.03,-47.8 -6.43,-89.27 -7.84,-130.77 2.41,-89.641 44.54,-257.399 89.83,-437.82 44.69,-177.93 92.44,-368.11 108.5,-509.52 h -14.2 c -16.12,140.062 -63.6,329.16 -108.03,506.09 -31.58,125.82 -61.64,245.5 -77.87,337.629 -0.16,-33.418 -0.06,-69.61 0.04,-110.957 0.09,-35.121 0.19,-73.703 0.19,-98.793 2.05,-72.09 -8.59,-158.75 -17.09,-227.93 -1.74,-14.039 -3.38,-27.469 -4.65,-38.391 -7.77,-66.878 -15.82,-130.507 -23.92,-191.859 1.11,-14.707 4.24,-33.91 5.74,-46.848 0.76,-6.632 1.5,-13.101 2.19,-19.41 C 1042.34,66.582 1045.47,31 1047.42,0 h -14.2 c -1.89,29.832 -4.88,63.9609 -9.37,104.871 -3.03,-19.0116 -7.23,-37.6718 -11.53,-56.7108 C 1008.81,32.5 1005.21,16.582 1002.21,0 h -14.378 c 3.164,17.7188 6.973,34.6406 10.703,51.25 4.295,19.1016 8.515,37.8086 11.485,56.801 2.48,15.789 4.55,32.871 4.71,49.57 z M 5267.57,5669.29 h 14.16 c 4.05,-75.68 12.02,-158.54 27.5,-284.26 15.12,-122.91 31.12,-364.64 44,-616.17 15.18,-296.53 26.04,-606.45 26.04,-751.3 0,-119.2 -0.64,-276.71 -9.73,-433.68 -9.07,-156.63 -26.59,-312.33 -60.35,-428.01 -1.74,-17.99 -19.03,-80.84 -41.52,-162.6 -39.85,-144.83 -96.13,-349.41 -110.3,-464.66 -12.13,-98.61 -19.68,-185.37 -24.32,-265.19 -4.67,-80.15 -6.47,-153.28 -7.08,-224.36 -3.63,-421.47 35.71,-705.25 80.46,-1028.08 16.52,-119.23 33.78,-243.789 49.87,-382.3 1.26,-10.91 2.92,-24.328 4.64,-38.371 8.5,-69.18 19.16,-155.84 17.1,-227.93 0,-25.09 -0.1,-63.68 -0.19,-98.777 C 5277.57,154.469 5277.38,81.3789 5281.73,0 h -14.16 c -4.31,81.2305 -4.12,154.469 -3.84,263.602 0.07,24.75 0.14,51.46 0.14,99.16 h 0.06 c 2.01,70.769 -8.59,156.988 -17.05,225.828 -1.61,13.07 -3.13,25.461 -4.64,38.492 -16.11,138.707 -33.34,263 -49.83,381.968 -44.8,323.28 -84.19,607.45 -80.56,1030.12 0.62,71.55 2.42,144.96 7.09,225.02 4.67,80.39 12.24,167.5 24.37,266.13 14.26,115.95 70.74,321.29 110.74,466.66 22.54,81.96 39.82,144.74 41.09,160.67 l 0.05,0.65 0.22,0.76 c 33.55,114.57 50.98,269.53 60.02,425.6 9.03,156.05 9.66,313.61 9.66,432.9 0,145.08 -10.82,454.69 -25.98,750.58 -12.85,251.01 -28.83,492.32 -43.94,615.17 -15.58,126.54 -23.57,209.78 -27.6,285.98 v 0" /><path
         id="path18"
         style="fill:#ffffff;fill-opacity:0.2;fill-rule:evenodd;stroke:none"
         d="m 5538.81,4396.3 v -80.62 c 44.52,0 80.62,36.09 80.62,80.63 0,44.52 -36.1,80.62 -80.62,80.62 v -80.63" /><path
         id="path20"
         style="fill:#ffffff;fill-opacity:0.2;fill-rule:evenodd;stroke:none"
         d="m 5077.54,5517.58 0.01,-80.62 c 44.52,0 80.62,36.09 80.62,80.63 0,44.52 -36.1,80.62 -80.62,80.62 l -0.01,-80.63 v 0" /><path
         id="path22"
         style="fill:#ffffff;fill-opacity:0.2;fill-rule:evenodd;stroke:none"
         d="m 4785.97,4927.88 v -57.19 c 31.59,0 57.19,25.61 57.19,57.2 0,31.59 -25.6,57.19 -57.19,57.19 v -57.2" /><path
         id="path24"
         style="fill:#ffffff;fill-opacity:0.2;fill-rule:evenodd;stroke:none"
         d="m 5333.48,5002.89 0.01,-57.2 c 31.58,0 57.18,25.61 57.18,57.2 0,31.59 -25.6,57.2 -57.18,57.2 l -0.01,-57.2 v 0" /><path
         id="path26"
         style="fill:#ffffff;fill-opacity:0.2;fill-rule:evenodd;stroke:none"
         d="m 5370.99,4087.86 v -57.19 c 31.58,0 57.19,25.6 57.19,57.19 0,31.59 -25.61,57.2 -57.19,57.2 v -57.2" /><path
         id="path28"
         style="fill:#ffffff;fill-opacity:0.2;fill-rule:evenodd;stroke:none"
         d="m 4823.47,3506.59 v -57.19 c 31.59,0 57.19,25.6 57.19,57.19 0,31.6 -25.6,57.2 -57.19,57.2 v -57.2" /><path
         id="path30"
         style="fill:#ffffff;fill-opacity:0.2;fill-rule:evenodd;stroke:none"
         d="m 4118.45,4515.37 0.01,-57.19 c 31.58,0 57.18,25.6 57.18,57.19 0,31.59 -25.6,57.2 -57.18,57.2 l -0.01,-57.2 v 0" /><path
         id="path32"
         style="fill:#ffffff;fill-opacity:0.2;fill-rule:evenodd;stroke:none"
         d="m 3901.17,3666.14 7.18,-56.74 c 31.34,3.96 53.53,32.58 49.56,63.92 -3.97,31.34 -32.59,53.53 -63.93,49.56 l 7.19,-56.74 v 0" /><path
         id="path34"
         style="fill:#ffffff;fill-opacity:0.2;fill-rule:evenodd;stroke:none"
         d="m 5396.92,2910.8 -7.87,-56.65 c 31.29,-4.34 60.18,17.49 64.52,48.79 4.35,31.28 -17.49,60.17 -48.78,64.52 l -7.87,-56.66 v 0" /><path
         id="path36"
         style="fill:#ffffff;fill-opacity:0.2;fill-rule:evenodd;stroke:none"
         d="m 5339.49,3351.76 -9.02,-56.48 c -31.2,4.98 -52.44,34.31 -47.45,65.5 4.98,31.19 34.3,52.44 65.5,47.45 l -9.03,-56.47 v 0" /><path
         id="path38"
         style="fill:#ffffff;fill-opacity:0.2;fill-rule:evenodd;stroke:none"
         d="m 5033.86,4332.4 -9.04,-56.47 c -31.19,4.98 -52.43,34.31 -47.45,65.5 4.99,31.19 34.32,52.44 65.51,47.45 l -9.02,-56.48 v 0" /><path
         id="path40"
         style="fill:#ffffff;fill-opacity:0.2;fill-rule:evenodd;stroke:none"
         d="m 4407.85,4928.14 -4.97,-56.98 c -31.47,2.75 -54.75,30.48 -52,61.95 2.74,31.47 30.48,54.75 61.94,52.01 l -4.97,-56.98 v 0" /><path
         id="path42"
         style="fill:#ffffff;fill-opacity:0.2;fill-rule:evenodd;stroke:none"
         d="m 4309.45,3477.98 13.02,-55.69 c -30.76,-7.19 -61.51,11.91 -68.71,42.67 -7.19,30.76 11.91,61.53 42.68,68.71 l 13.01,-55.69 v 0" /><path
         id="path44"
         style="fill:#ffffff;fill-opacity:0.2;fill-rule:evenodd;stroke:none"
         d="m 4206.07,2600.84 14.65,-55.28 c -30.53,-8.1 -61.83,10.1 -69.93,40.63 -8.1,30.54 10.1,61.85 40.64,69.94 l 14.64,-55.29 v 0" /><path
         id="path46"
         style="fill:#ffffff;fill-opacity:0.2;fill-rule:evenodd;stroke:none"
         d="m 3512.99,4077.02 -15.17,-55.14 c 30.46,-8.38 61.94,9.51 70.31,39.98 8.38,30.45 -9.52,61.94 -39.98,70.31 l -15.16,-55.15 v 0" /><path
         id="path48"
         style="fill:#ffffff;fill-opacity:0.2;fill-rule:evenodd;stroke:none"
         d="m 5415.35,1928.1 -6.31,-56.85 c 31.4,-3.48 59.68,19.14 63.17,50.54 3.47,31.4 -19.15,59.67 -50.55,63.15 l -6.31,-56.84 v 0" /><path
         id="path50"
         style="fill:#ffffff;fill-opacity:0.2;fill-rule:evenodd;stroke:none"
         d="m 5351.69,2392.81 0.46,-57.19 c -31.59,-0.26 -57.4,25.14 -57.65,56.74 -0.25,31.58 25.15,57.39 56.73,57.64 l 0.46,-57.19 v 0" /><path
         id="path52"
         style="fill:#ffffff;fill-opacity:0.2;fill-rule:evenodd;stroke:none"
         d="m 5368.56,1492.79 0.46,-57.2 c -31.58,-0.26 -57.4,25.15 -57.64,56.74 -0.26,31.59 25.14,57.4 56.72,57.65 l 0.46,-57.19 v 0" /><path
         id="path54"
         style="fill:#ffffff;fill-opacity:0.2;fill-rule:evenodd;stroke:none"
         d="m 5512.99,608.199 -7.48,-56.707 c 31.32,-4.133 60.06,17.906 64.19,49.219 4.13,31.309 -17.91,60.051 -49.22,64.18 l -7.49,-56.692 v 0" /><path
         id="path56"
         style="fill:#ffffff;fill-opacity:0.2;fill-rule:evenodd;stroke:none"
         d="m 5326.35,876.879 -1.77,-57.168 c -31.57,0.98 -56.38,27.348 -55.41,58.93 0.98,31.578 27.36,56.379 58.93,55.41 l -1.75,-57.172 v 0" /><path
         id="path58"
         style="fill:#ffffff;fill-opacity:0.2;fill-rule:evenodd;stroke:none"
         d="m 4852.42,626.52 0.6,-57.2 c -31.58,-0.32 -57.46,25.012 -57.79,56.602 -0.33,31.578 25,57.457 56.6,57.789 l 0.59,-57.191 v 0" /><path
         id="path60"
         style="fill:#ffffff;fill-opacity:0.2;fill-rule:evenodd;stroke:none"
         d="M 4278.19,968.711 V 911.52 c 31.59,0 57.2,25.609 57.2,57.191 0,31.599 -25.61,57.199 -57.2,57.199 v -57.199" /><path
         id="path62"
         style="fill:#ffffff;fill-opacity:0.2;fill-rule:evenodd;stroke:none"
         d="m 5169.16,514.68 0.74,-70.989 c -39.2,-0.41 -71.32,31.039 -71.73,70.25 -0.4,39.207 31.04,71.329 70.25,71.739 l 0.74,-71 v 0" /><path
         id="path64"
         style="fill:#ffffff;fill-opacity:0.2;fill-rule:evenodd;stroke:none"
         d="m 3972.88,2123.48 0.74,-70.99 c -39.2,-0.41 -71.32,31.04 -71.73,70.25 -0.41,39.2 31.04,71.32 70.25,71.73 l 0.74,-70.99 v 0" /><path
         id="path66"
         style="fill:#ffffff;fill-opacity:0.2;fill-rule:evenodd;stroke:none"
         d="m 4094.77,233.82 -10.59,-56.199 c -31.05,5.848 -51.46,35.75 -45.62,66.801 5.86,31.039 35.77,51.457 66.81,45.609 l -10.6,-56.211 v 0" /><path
         id="path68"
         style="fill:#ffffff;fill-opacity:0.2;fill-rule:evenodd;stroke:none"
         d="m 5119.18,1901.55 0.46,-57.19 c -31.58,-0.26 -57.39,25.14 -57.65,56.73 -0.25,31.59 25.15,57.4 56.73,57.65 l 0.46,-57.19 v 0" /><path
         id="path70"
         style="fill:#ffffff;fill-opacity:0.2;fill-rule:evenodd;stroke:none"
         d="m 4515.42,1477.79 0.46,-57.2 c -31.59,-0.26 -57.4,25.15 -57.66,56.74 -0.25,31.59 25.15,57.39 56.74,57.65 l 0.46,-57.19 v 0" /><path
         id="path72"
         style="fill:#ffffff;fill-opacity:0.2;fill-rule:evenodd;stroke:none"
         d="m 4672.83,1976.85 -6.31,-56.85 c 31.4,-3.48 59.68,19.14 63.17,50.55 3.47,31.39 -19.15,59.67 -50.55,63.14 l -6.31,-56.84 v 0" /><path
         id="path74"
         style="fill:#ffffff;fill-opacity:0.2;fill-rule:evenodd;stroke:none"
         d="m 4348.32,1883.75 v -67.5 c 37.28,0 67.49,30.22 67.5,67.5 0,37.28 -30.22,67.5 -67.5,67.5 v -67.5" /><path
         id="path76"
         style="fill:#ffffff;fill-opacity:0.2;fill-rule:evenodd;stroke:none"
         d="m 3680.8,1358.73 v -67.5 c 37.28,0 67.5,30.23 67.5,67.51 0,37.28 -30.21,67.5 -67.49,67.5 l -0.01,-67.51 v 0" /><path
         id="path78"
         style="fill:#ffffff;fill-opacity:0.2;fill-rule:evenodd;stroke:none"
         d="m 2754.53,2240.01 v -67.5 c 37.29,0 67.5,30.22 67.5,67.5 0,37.28 -30.21,67.5 -67.5,67.5 v -67.5" /><path
         id="path80"
         style="fill:#ffffff;fill-opacity:0.2;fill-rule:evenodd;stroke:none"
         d="m 2968.28,312.449 v -67.5 c 37.28,0 67.5,30.231 67.5,67.512 0,37.277 -30.21,67.5 -67.49,67.5 l -0.01,-67.512 v 0" /><path
         id="path82"
         style="fill:#ffffff;fill-opacity:0.2;fill-rule:evenodd;stroke:none"
         d="m 3276.5,1609.05 v -57.2 c -31.59,0 -57.18,25.6 -57.19,57.2 0.01,31.58 25.61,57.19 57.19,57.18 v -57.18" /><path
         id="path84"
         style="fill:#ffffff;fill-opacity:0.2;fill-rule:evenodd;stroke:none"
         d="M 2195.74,2696.58 2195,2639.4 c -31.6,0.41 -56.86,26.34 -56.45,57.93 0.41,31.59 26.35,56.86 57.93,56.44 l -0.74,-57.19 v 0" /><path
         id="path86"
         style="fill:#ffffff;fill-opacity:0.2;fill-rule:evenodd;stroke:none"
         d="m 4502.04,2996.59 -0.74,-57.19 c -31.59,0.41 -56.86,26.35 -56.45,57.94 0.42,31.58 26.36,56.86 57.94,56.44 l -0.75,-57.19 v 0" /><path
         id="path88"
         style="fill:#ffffff;fill-opacity:0.2;fill-rule:evenodd;stroke:none"
         d="m 1726.97,2164.06 -0.74,-57.18 c -31.58,0.41 -56.86,26.35 -56.45,57.94 0.41,31.58 26.35,56.85 57.93,56.43 l -0.74,-57.19 v 0" /><path
         id="path90"
         style="fill:#ffffff;fill-opacity:0.2;fill-rule:evenodd;stroke:none"
         d="m 2387.17,747.789 -0.57,-43.449 c -24,0.312 -43.18,20.019 -42.87,44.019 0.31,24 20.02,43.2 44,42.883 l -0.56,-43.453 v 0" /><path
         id="path92"
         style="fill:#ffffff;fill-opacity:0.2;fill-rule:evenodd;stroke:none"
         d="m 3684.7,2101.57 -0.56,-43.44 c -24,0.31 -43.2,20.02 -42.89,44.02 0.32,23.99 20.03,43.19 44.02,42.87 l -0.57,-43.45 v 0" /><path
         id="path94"
         style="fill:#ffffff;fill-opacity:0.2;fill-rule:evenodd;stroke:none"
         d="m 3069.69,3196.6 -0.57,-43.44 c -24,0.31 -43.19,20.02 -42.88,44.02 0.31,23.99 20.02,43.19 44.01,42.88 l -0.56,-43.46 v 0" /><path
         id="path96"
         style="fill:#ffffff;fill-opacity:0.2;fill-rule:evenodd;stroke:none"
         d="m 4733.69,1262.12 10.46,-66.68 c 36.83,5.77 62,40.3 56.23,77.14 -5.78,36.83 -40.31,62 -77.14,56.23 l 10.45,-66.69 v 0" /><path
         id="path98"
         style="fill:#ffffff;fill-opacity:0.2;fill-rule:evenodd;stroke:none"
         d="m 5052.78,3107.22 -11.26,-56.08 c 30.97,-6.22 61.12,13.84 67.34,44.81 6.23,30.97 -13.84,61.12 -44.81,67.34 l -11.27,-56.07 v 0" /><path
         id="path100"
         style="fill:#ffffff;fill-opacity:0.2;fill-rule:evenodd;stroke:none"
         d="m 3386.79,3194.49 -3.41,-57.09 c 31.52,-1.88 58.61,22.14 60.5,53.68 1.88,31.53 -22.15,58.62 -53.68,60.51 l -3.41,-57.1 v 0" /><path
         id="path102"
         style="fill:#ffffff;fill-opacity:0.2;fill-rule:evenodd;stroke:none"
         d="m 2823.91,3566.43 14.4,-55.35 c -30.58,-7.96 -61.81,10.39 -69.76,40.96 -7.95,30.57 10.4,61.8 40.96,69.74 l 14.4,-55.35 v 0" /><path
         id="path104"
         style="fill:#ffffff;fill-opacity:0.2;fill-rule:evenodd;stroke:none"
         d="m 2140.08,3369.75 -7.72,-46.52 c -25.68,4.26 -43.06,28.54 -38.81,54.23 4.28,25.7 28.56,43.07 54.24,38.81 l -7.71,-46.52 v 0" /><path
         id="path106"
         style="fill:#ffffff;fill-opacity:0.2;fill-rule:evenodd;stroke:none"
         d="m 3915.01,5041.32 0.01,-80.62 c 44.52,0 80.62,36.1 80.62,80.63 0,44.52 -36.1,80.62 -80.62,80.62 l -0.01,-80.63 v 0" /><path
         id="path108"
         style="fill:#ffffff;fill-opacity:0.2;fill-rule:evenodd;stroke:none"
         d="m 2709.16,4182.67 5.35,-80.45 c 44.44,2.96 78.05,41.37 75.1,85.8 -2.97,44.43 -41.39,78.06 -85.8,75.1 l 5.35,-80.45 v 0" /><path
         id="path110"
         style="fill:#ffffff;fill-opacity:0.2;fill-rule:evenodd;stroke:none"
         d="m 3170.05,4906.18 -9.03,-56.48 c -31.19,4.98 -52.43,34.31 -47.45,65.5 4.99,31.19 34.32,52.44 65.51,47.45 l -9.03,-56.47 v 0" /><path
         id="path112"
         style="fill:#ffffff;fill-opacity:0.2;fill-rule:evenodd;stroke:none"
         d="m 2993.42,5179.14 v -57.19 c 31.58,0 57.19,25.6 57.19,57.19 0,31.59 -25.61,57.2 -57.19,57.2 v -57.2" /><path
         id="path114"
         style="fill:#ffffff;fill-opacity:0.2;fill-rule:evenodd;stroke:none"
         d="m 2513.4,4777.88 0.02,-57.19 c 31.58,0 57.18,25.6 57.18,57.19 0,31.59 -25.6,57.2 -57.18,57.2 l -0.02,-57.2 v 0" /><path
         id="path116"
         style="fill:#ffffff;fill-opacity:0.2;fill-rule:evenodd;stroke:none"
         d="m 3233.43,3746.6 v -57.19 c 31.58,0 57.2,25.6 57.2,57.19 0,31.59 -25.62,57.2 -57.2,57.2 v -57.2" /><path
         id="path118"
         style="fill:#ffffff;fill-opacity:0.2;fill-rule:evenodd;stroke:none"
         d="m 4496.96,4168 13.02,-55.69 c -30.76,-7.2 -61.52,11.91 -68.71,42.67 -7.19,30.76 11.91,61.53 42.67,68.71 l 13.02,-55.69 v 0" /><path
         id="path120"
         style="fill:#ffffff;fill-opacity:0.2;fill-rule:evenodd;stroke:none"
         d="m 3746.26,4463.81 v -80.63 c 44.53,0 80.62,36.09 80.62,80.63 0,44.52 -36.09,80.63 -80.62,80.63 v -80.63" /><path
         id="path122"
         style="fill:#ffffff;fill-opacity:0.2;fill-rule:evenodd;stroke:none"
         d="m 5171.3,3961.29 v -80.62 c 44.53,0 80.62,36.09 80.62,80.62 0,44.53 -36.09,80.63 -80.62,80.63 v -80.63" /><path
         id="path124"
         style="fill:#ffffff;fill-opacity:0.2;fill-rule:evenodd;stroke:none"
         d="m 5442.27,5385.56 4.84,-56.99 c 31.47,2.66 54.82,30.34 52.17,61.81 -2.68,31.48 -30.35,54.84 -61.83,52.17 l 4.82,-56.99 v 0" /><path
         id="path126"
         style="fill:#ffffff;fill-opacity:0.2;fill-rule:evenodd;stroke:none"
         d="m 3767.14,2754.34 -4.41,-43.22 c -23.87,2.43 -41.25,23.76 -38.81,47.63 2.44,23.88 23.77,41.26 47.63,38.82 l -4.41,-43.23 v 0" /><path
         id="path128"
         style="fill:#ffffff;fill-opacity:0.2;fill-rule:evenodd;stroke:none"
         d="m 3733.39,3444.36 -4.41,-43.22 c -23.87,2.43 -41.25,23.76 -38.81,47.64 2.44,23.87 23.77,41.25 47.63,38.81 l -4.41,-43.23 v 0" /><path
         id="path130"
         style="fill:#ffffff;fill-opacity:0.2;fill-rule:evenodd;stroke:none"
         d="m 2589.61,3249.36 -4.4,-43.23 c -23.88,2.43 -41.27,23.76 -38.82,47.64 2.44,23.87 23.77,41.25 47.63,38.82 l -4.41,-43.23 v 0" /><path
         id="path132"
         style="fill:#ffffff;fill-opacity:0.2;fill-rule:evenodd;stroke:none"
         d="m 2589.61,1719.32 -4.4,-43.23 c -23.88,2.43 -41.27,23.77 -38.82,47.64 2.44,23.88 23.77,41.25 47.63,38.81 l -4.41,-43.22 v 0" /><path
         id="path134"
         style="fill:#ffffff;fill-opacity:0.2;fill-rule:evenodd;stroke:none"
         d="m 1937.09,2476.84 -4.4,-43.23 c -23.88,2.43 -41.25,23.77 -38.82,47.64 2.44,23.88 23.77,41.25 47.63,38.81 l -4.41,-43.22 v 0" /><path
         id="path136"
         style="fill:#ffffff;fill-opacity:0.2;fill-rule:evenodd;stroke:none"
         d="m 2087.11,1486.81 -4.42,-43.22 c -23.88,2.43 -41.25,23.76 -38.82,47.63 2.44,23.88 23.77,41.26 47.63,38.82 l -4.39,-43.23 v 0" /><path
         id="path138"
         style="fill:#ffffff;fill-opacity:0.2;fill-rule:evenodd;stroke:none"
         d="m 1780.02,3226.6 -1.15,-43.43 c 23.98,-0.64 43.96,18.28 44.59,42.27 0.64,24 -18.28,43.96 -42.27,44.6 l -1.17,-43.44 v 0" /><path
         id="path140"
         style="fill:#ffffff;fill-opacity:0.2;fill-rule:evenodd;stroke:none"
         d="m 3531.33,2476.58 -1.16,-43.43 c 23.98,-0.65 43.95,18.29 44.6,42.27 0.63,24 -18.3,43.97 -42.28,44.6 l -1.16,-43.44 v 0" /><path
         id="path142"
         style="fill:#ffffff;fill-opacity:0.2;fill-rule:evenodd;stroke:none"
         d="m 4165.09,4085.38 -1.16,-43.44 c 23.99,-0.64 43.96,18.29 44.59,42.28 0.65,23.99 -18.28,43.96 -42.27,44.6 l -1.16,-43.44 v 0" /><path
         id="path144"
         style="fill:#ffffff;fill-opacity:0.2;fill-rule:evenodd;stroke:none"
         d="m 4734.31,2593.17 -5.75,-43.08 c 23.79,-3.17 45.65,13.54 48.82,37.32 3.17,23.8 -13.54,45.66 -37.33,48.82 l -5.74,-43.06 v 0" /><path
         id="path146"
         style="fill:#ffffff;fill-opacity:0.2;fill-rule:evenodd;stroke:none"
         d="m 2244.24,2086.9 -5.74,-43.08 c 23.78,-3.16 45.64,13.55 48.82,37.33 3.17,23.79 -13.55,45.65 -37.32,48.82 l -5.76,-43.07 v 0" /><path
         id="path148"
         style="fill:#ffffff;fill-opacity:0.2;fill-rule:evenodd;stroke:none"
         d="m 2488.01,2544.41 -5.76,-43.08 c 23.78,-3.16 45.64,13.55 48.82,37.33 3.17,23.79 -13.53,45.65 -37.32,48.82 l -5.74,-43.07 v 0" /><path
         id="path150"
         style="fill:#ffffff;fill-opacity:0.2;fill-rule:evenodd;stroke:none"
         d="m 1684.63,1441.55 0.04,-43.45 c 23.98,0.02 43.43,19.48 43.42,43.48 -0.02,24.01 -19.5,43.44 -43.5,43.42 l 0.04,-43.45 v 0" /><path
         id="path152"
         style="fill:#ffffff;fill-opacity:0.2;fill-rule:evenodd;stroke:none"
         d="m 2067.13,91.5195 0.04,-43.4609 c 24,0.0234 43.43,19.4805 43.42,43.4922 -0.02,24.0002 -19.48,43.4292 -43.48,43.4102 l 0.02,-43.4415 v 0" /><path
         id="path154"
         style="fill:#ffffff;fill-opacity:0.2;fill-rule:evenodd;stroke:none"
         d="m 3345.92,624.031 0.03,-43.461 c 24,0.02 43.44,19.489 43.43,43.489 -0.03,24 -19.5,43.441 -43.49,43.421 l 0.03,-43.449 v 0" /><path
         id="path156"
         style="fill:#ffffff;fill-opacity:0.2;fill-rule:evenodd;stroke:none"
         d="m 3664.68,106.52 0.03,-43.4614 c 24,0.0234 43.43,19.4805 43.42,43.4924 -0.03,24 -19.49,43.429 -43.49,43.41 l 0.04,-43.441 v 0" /><path
         id="path158"
         style="fill:#ffffff;fill-opacity:0.2;fill-rule:evenodd;stroke:none"
         d="m 4587.21,181.52 0.03,-43.461 c 24,0.023 43.43,19.492 43.41,43.492 -0.02,24 -19.48,43.429 -43.48,43.418 l 0.04,-43.449 v 0" /><path
         id="path160"
         style="fill:#ffffff;fill-opacity:0.2;fill-rule:evenodd;stroke:none"
         d="m 2664.53,957.469 v -67.5 c 37.27,0 67.5,30.222 67.5,67.511 0,37.282 -30.21,67.49 -67.5,67.49 v -67.501" /><path
         id="path162"
         style="fill:#ffffff;fill-opacity:0.2;fill-rule:evenodd;stroke:none"
         d="m 1773.52,473.742 1.5,-67.492 c 37.28,0.84 66.82,31.742 65.98,69.02 -0.84,37.261 -31.74,66.789 -69.01,65.949 l 1.53,-67.477 v 0" /><path
         id="path164"
         style="fill:#ffffff;fill-opacity:0.2;fill-rule:evenodd;stroke:none"
         d="m 3995.62,1025.35 -7.74,-67.049 c 37.02,-4.27 70.52,22.269 74.8,59.309 4.27,37.03 -22.28,70.53 -59.3,74.8 l -7.76,-67.06 v 0" /><path
         id="path166"
         style="fill:#ffffff;fill-opacity:0.2;fill-rule:evenodd;stroke:none"
         d="m 3314.32,2491.74 4.09,-43.26 c -23.9,-2.27 -45.09,15.28 -47.36,39.17 -2.25,23.9 15.29,45.1 39.17,47.35 l 4.1,-43.26 v 0" /><path
         id="path168"
         style="fill:#ffffff;fill-opacity:0.2;fill-rule:evenodd;stroke:none"
         d="m 3172.23,73.7188 -8.78,-42.5586 C 3139.94,36.0117 3124.82,59 3129.67,82.5 c 4.85,23.512 27.83,38.629 51.34,33.781 l -8.78,-42.5622 v 0" /><path
         id="path170"
         style="fill:#ffffff;fill-opacity:0.2;fill-rule:evenodd;stroke:none"
         d="m 1584.96,95.0625 -3.32,-67.4219 c -37.25,1.8399 -65.94,33.5 -64.1,70.7383 1.83,37.2301 33.49,65.9301 70.74,64.0901 l -3.32,-67.4065 v 0" /><path
         id="path172"
         style="fill:#ffffff;fill-opacity:0.2;fill-rule:evenodd;stroke:none"
         d="m 2387.48,1426.35 -3.32,-67.42 c -37.23,1.82 -65.94,33.49 -64.1,70.73 1.83,37.24 33.49,65.94 70.74,64.1 l -3.32,-67.41 v 0" /><path
         id="path174"
         style="fill:#ffffff;fill-opacity:0.2;fill-rule:evenodd;stroke:none"
         d="m 2235.57,350.531 4.41,-43.222 c 23.87,2.429 41.25,23.761 38.81,47.632 -2.42,23.879 -23.75,41.258 -47.64,38.821 l 4.42,-43.231 v 0" /><path
         id="path176"
         style="fill:#ffffff;fill-opacity:0.2;fill-rule:evenodd;stroke:none"
         d="m 3574.35,1119.3 4.41,-43.22 c 23.88,2.43 41.25,23.76 38.82,47.63 -2.44,23.88 -23.77,41.26 -47.64,38.82 l 4.41,-43.23 v 0" /><path
         id="path178"
         style="fill:#ffffff;fill-opacity:0.2;fill-rule:evenodd;stroke:none"
         d="m 1496.8,1734.54 4.41,43.24 c 23.87,-2.45 41.25,-23.77 38.81,-47.65 -2.42,-23.88 -23.75,-41.25 -47.64,-38.82 l 4.42,43.23 v 0" /><path
         id="path180"
         style="fill:#ffffff;fill-opacity:0.2;fill-rule:evenodd;stroke:none"
         d="m 3941.85,1674.54 4.42,43.24 c 23.88,-2.45 41.26,-23.77 38.82,-47.65 -2.43,-23.88 -23.76,-41.25 -47.64,-38.82 l 4.4,43.23 v 0" /><path
         id="path182"
         style="fill:#ffffff;fill-opacity:0.2;fill-rule:evenodd;stroke:none"
         d="m 2906.84,1138.27 4.4,43.24 c 23.88,-2.44 41.26,-23.76 38.82,-47.64 -2.43,-23.88 -23.76,-41.26 -47.64,-38.82 l 4.42,43.22 v 0" /><path
         id="path184"
         style="fill:#ffffff;fill-opacity:0.2;fill-rule:evenodd;stroke:none"
         d="m 2294.98,1173.07 19.63,-38.77 c -21.43,-10.83 -47.58,-2.26 -58.4,19.16 -10.84,21.42 -2.27,47.56 19.16,58.39 l 19.61,-38.78 v 0" /><path
         id="path186"
         style="fill:#ffffff;fill-opacity:0.2;fill-rule:evenodd;stroke:none"
         d="m 1594.84,948.289 9.46,-42.418 c -23.44,-5.199 -46.66,9.551 -51.88,32.981 -5.21,23.418 9.55,46.64 32.99,51.859 l 9.43,-42.422 v 0" /><path
         id="path188"
         style="fill:#ffffff;fill-opacity:0.2;fill-rule:evenodd;stroke:none"
         d="m 4514.3,802.031 9.44,-42.41 c -23.42,-5.211 -46.64,9.551 -51.86,32.969 -5.21,23.43 9.55,46.652 32.97,51.871 l 9.45,-42.43 v 0" /><path
         id="path190"
         style="fill:#ffffff;fill-opacity:0.2;fill-rule:evenodd;stroke:none"
         d="m 808.691,1321.34 -3.32,-67.41 c -37.246,1.82 -65.937,33.49 -64.101,70.73 1.835,37.24 33.496,65.93 70.742,64.1 l -3.321,-67.42 v 0" /><path
         id="path192"
         style="fill:#ffffff;fill-opacity:0.2;fill-rule:evenodd;stroke:none"
         d="m 1018.32,144.27 -4.41,-43.219 c -23.871,2.429 -41.254,23.758 -38.812,47.64 2.441,23.871 23.769,41.25 47.632,38.809 l -4.41,-43.23 v 0" /><path
         id="path194"
         style="fill:#ffffff;fill-opacity:0.2;fill-rule:evenodd;stroke:none"
         d="m 149.727,968.75 1.503,-67.48 c 37.266,0.839 66.797,31.73 65.977,69.011 -0.84,37.259 -31.738,66.799 -69.004,65.959 l 1.524,-67.49 v 0" /><path
         id="path196"
         style="fill:#ffffff;fill-opacity:0.2;fill-rule:evenodd;stroke:none"
         d="m 175.918,84.2812 -0.215,43.4568 c 23.985,0.121 43.555,-19.226 43.672,-43.238 0.117,-23.9883 -19.238,-43.5508 -43.223,-43.668 l -0.234,43.4492 v 0" /><path
         id="path198"
         style="fill:#ffffff;fill-opacity:0.2;fill-rule:evenodd;stroke:none"
         d="m 1072.19,913.059 -0.22,43.461 c 24.01,0.109 43.56,-19.239 43.67,-43.239 0.12,-24 -19.23,-43.551 -43.22,-43.679 l -0.23,43.457 v 0" /><path
         id="path200"
         style="fill:#ffffff;fill-opacity:0.2;fill-rule:evenodd;stroke:none"
         d="m 853.262,2078.87 3.3,-67.42 c 37.247,1.83 65.938,33.49 64.102,70.73 -1.836,37.24 -33.496,65.94 -70.723,64.1 l 3.321,-67.41 v 0" /><path
         id="path202"
         style="fill:#ffffff;fill-opacity:0.2;fill-rule:evenodd;stroke:none"
         d="m 1310.21,1197.83 -2.24,-43.4 c 23.98,-1.22 44.41,17.2 45.64,41.17 1.23,23.97 -17.2,44.39 -41.17,45.62 l -2.23,-43.39 v 0" /><path
         id="path204"
         style="fill:#ffffff;fill-opacity:0.2;fill-rule:evenodd;stroke:none"
         d="m 1377.71,305.309 -2.22,-43.399 c 23.96,-1.23 44.39,17.192 45.62,41.172 1.23,23.957 -17.2,44.387 -41.17,45.617 l -2.23,-43.39 v 0" /><path
         id="path206"
         style="fill:#ffffff;fill-opacity:0.2;fill-rule:evenodd;stroke:none"
         d="m 166.426,402.809 -2.227,-43.399 c 23.965,-1.219 44.395,17.199 45.625,41.172 1.231,23.969 -17.187,44.387 -41.172,45.617 l -2.226,-43.39 v 0" /><path
         id="path208"
         style="fill:#ffffff;fill-opacity:0.2;fill-rule:evenodd;stroke:none"
         d="m 426.172,218.812 -3.32,-67.421 c -37.227,1.839 -65.918,33.5 -64.102,70.738 1.836,37.23 33.516,65.93 70.742,64.101 l -3.32,-67.418 v 0" /><path
         id="path210"
         style="fill:#ffffff;fill-opacity:0.2;fill-rule:evenodd;stroke:none"
         d="m 648.438,309.289 -0.235,43.461 c 24.004,0.109 43.555,-19.238 43.672,-43.23 0.137,-24.008 -19.219,-43.559 -43.223,-43.688 l -0.214,43.457 v 0" /><path
         id="path212"
         style="fill:#ffffff;fill-opacity:0.2;fill-rule:evenodd;stroke:none"
         d="m 406.875,748.25 6.758,-42.93 c -23.692,-3.73 -45.938,12.469 -49.668,36.18 -3.731,23.711 12.461,45.941 36.172,49.68 l 6.738,-42.93 v 0" /><path
         id="path214"
         style="fill:#ffffff;fill-opacity:0.2;fill-rule:evenodd;stroke:none"
         d="m 349.219,1681.92 2.461,43.38 c -23.965,1.36 -44.492,-16.96 -45.84,-40.92 -1.367,-23.96 16.933,-44.49 40.898,-45.85 l 2.481,43.39 v 0" /><path
         id="path216"
         style="fill:#ffffff;fill-opacity:0.2;fill-rule:evenodd;stroke:none"
         d="m 275.742,2442.62 3.32,-67.42 c 37.227,1.83 65.918,33.5 64.083,70.74 -1.836,37.23 -33.497,65.93 -70.723,64.1 l 3.32,-67.42 v 0" /><path
         id="path218"
         style="fill:#ffffff;fill-opacity:0.2;fill-rule:evenodd;stroke:none"
         d="m 664.355,1719.08 1.68,-43.42 c -23.984,-0.93 -44.16,17.75 -45.097,41.73 -0.918,23.99 17.753,44.18 41.738,45.11 l 1.679,-43.42 v 0" /><path
         id="path220"
         style="fill:#ffffff;fill-opacity:0.2;fill-rule:evenodd;stroke:none"
         d="m 1115.82,1475.56 -4.41,-43.22 c -23.87,2.43 -41.25,23.76 -38.81,47.63 2.44,23.88 23.77,41.25 47.63,38.82 l -4.41,-43.23 v 0" /><path
         id="path222"
         style="fill:#ffffff;fill-opacity:0.2;fill-rule:evenodd;stroke:none"
         d="m 223.301,1828.07 -4.414,-43.22 c -23.867,2.43 -41.25,23.76 -38.809,47.63 2.442,23.88 23.77,41.26 47.637,38.82 l -4.414,-43.23 v 0" /><path
         id="path224"
         style="fill:#ffffff;fill-opacity:0.2;fill-rule:evenodd;stroke:none"
         d="m 1389.94,3117.64 -3.32,-67.42 c -37.23,1.83 -65.92,33.5 -64.08,70.74 1.81,37.23 33.49,65.93 70.72,64.1 l -3.32,-67.42 v 0" /><path
         id="path226"
         style="fill:#ffffff;fill-opacity:0.2;fill-rule:evenodd;stroke:none"
         d="m 950.82,3110.6 -4.414,-43.22 c -23.867,2.43 -41.25,23.76 -38.808,47.64 2.441,23.87 23.769,41.25 47.636,38.81 l -4.414,-43.23 v 0" /><path
         id="path228"
         style="fill:#ffffff;fill-opacity:0.2;fill-rule:evenodd;stroke:none"
         d="m 528.398,3151.79 4.512,-43.22 c -23.887,-2.49 -45.234,14.85 -47.734,38.72 -2.481,23.87 14.863,45.24 38.73,47.72 l 4.492,-43.22 v 0" /><path
         id="path230"
         style="fill:#ffffff;fill-opacity:0.2;fill-rule:evenodd;stroke:none"
         d="m 260.449,2874.42 -5.761,-43.08 c 23.808,-3.16 45.664,13.55 48.828,37.33 3.164,23.79 -13.536,45.65 -37.325,48.82 l -5.742,-43.07 v 0" /><path
         id="path232"
         style="fill:#ffffff;fill-opacity:0.2;fill-rule:evenodd;stroke:none"
         d="m 1914.24,1888.14 -5.74,-43.08 c 23.78,-3.16 45.64,13.55 48.8,37.33 3.19,23.79 -13.53,45.65 -37.32,48.82 l -5.74,-43.07 v 0" /><path
         id="path234"
         style="fill:#ffffff;fill-opacity:0.2;fill-rule:evenodd;stroke:none"
         d="m 2446.76,2161.9 -5.76,-43.08 c 23.8,-3.16 45.66,13.55 48.82,37.33 3.17,23.79 -13.53,45.65 -37.32,48.82 l -5.74,-43.07 v 0" /><path
         id="path236"
         style="fill:#ffffff;fill-opacity:0.2;fill-rule:evenodd;stroke:none"
         d="m 1347.97,2293.16 -5.74,-43.08 c 23.79,-3.17 45.64,13.54 48.8,37.32 3.19,23.79 -13.53,45.65 -37.32,48.82 l -5.74,-43.06 v 0" /><path
         id="path238"
         style="fill:#ffffff;fill-opacity:0.2;fill-rule:evenodd;stroke:none"
         d="m 644.062,2412.95 2.95,-43.36 c 23.945,1.63 42.031,22.36 40.41,46.3 -1.621,23.95 -22.344,42.04 -46.289,40.41 l 2.929,-43.35 v 0" /><path
         id="path240"
         style="fill:#ffffff;fill-opacity:0.2;fill-rule:evenodd;stroke:none"
         d="m 2759.12,3012.96 2.95,-43.35 c 23.95,1.63 42.03,22.35 40.41,46.3 -1.62,23.94 -22.34,42.03 -46.29,40.41 l 2.93,-43.36 v 0" /><path
         id="path242"
         style="fill:#ffffff;fill-opacity:0.2;fill-rule:evenodd;stroke:none"
         d="m 1739.1,770.398 2.95,-43.359 c 23.93,1.641 42.03,22.359 40.41,46.301 -1.64,23.949 -22.36,42.039 -46.31,40.41 l 2.95,-43.352 v 0" /><path
         id="path244"
         style="fill:#ffffff;fill-opacity:0.2;fill-rule:evenodd;stroke:none"
         d="m 1330.33,657.898 2.95,-43.359 c 23.95,1.641 42.03,22.359 40.41,46.301 -1.62,23.949 -22.34,42.039 -46.29,40.41 l 2.93,-43.352 v 0" /><path
         id="path246"
         style="fill:#ffffff;fill-opacity:0.2;fill-rule:evenodd;stroke:none"
         d="M 521.406,650.262 527.129,583 c 37.148,3.16 64.687,35.832 61.523,72.992 -3.164,37.137 -35.84,64.688 -72.988,61.52 l 5.742,-67.25 v 0" /><path
         id="path248"
         style="fill:#ffffff;fill-opacity:0.2;fill-rule:evenodd;stroke:none"
         d="m 85.3125,2735.46 2.9297,-43.36 c 23.9458,1.63 42.0508,22.36 40.4098,46.3 -1.621,23.95 -22.343,42.03 -46.2887,40.41 l 2.9492,-43.35 v 0" /><path
         id="path250"
         style="fill:#ffffff;fill-opacity:0.2;fill-rule:evenodd;stroke:none"
         d="m 5559.33,2705.67 -5.75,-43.08 c 23.79,-3.17 45.65,13.55 48.82,37.32 3.18,23.8 -13.53,45.66 -37.32,48.82 l -5.75,-43.06 v 0" /><path
         id="path252"
         style="fill:#ffffff;fill-opacity:0.2;fill-rule:evenodd;stroke:none"
         d="m 5584.43,3597.07 -7.87,-56.65 c 31.28,-4.34 60.18,17.49 64.52,48.78 4.35,31.29 -17.49,60.18 -48.78,64.53 l -7.87,-56.66 v 0" /><path
         id="path254"
         style="fill:#ffffff;fill-opacity:0.2;fill-rule:evenodd;stroke:none"
         d="m 5615.75,1827.87 1.99,-43.41 c 23.98,1.1 42.52,21.42 41.42,45.4 -1.09,23.98 -21.42,42.52 -45.39,41.42 l 1.98,-43.41 v 0" /><path
         id="path256"
         style="fill:#ffffff;fill-opacity:0.2;fill-rule:evenodd;stroke:none"
         d="m 5495.75,87.832 1.99,-43.4218 c 23.98,1.1015 42.52,21.4218 41.42,45.3984 -1.09,23.9804 -21.43,42.5234 -45.39,41.4214 l 1.98,-43.398 v 0" /><path
         id="path258"
         style="fill:#ffffff;fill-opacity:0.2;fill-rule:evenodd;stroke:none"
         d="m 5555.75,1055.34 1.99,-43.4 c 23.98,1.1 42.52,21.42 41.42,45.4 -1.09,23.97 -21.42,42.52 -45.39,41.41 l 1.98,-43.41 v 0" /><path
         id="path260"
         style="fill:#ffffff;fill-opacity:0.2;fill-rule:evenodd;stroke:none"
         d="m 1977.89,4666.43 5.35,-80.45 c 44.44,2.96 78.05,41.38 75.1,85.81 -2.97,44.43 -41.39,78.05 -85.8,75.09 l 5.35,-80.45 v 0" /><path
         id="path262"
         style="fill:#ffffff;fill-opacity:0.2;fill-rule:evenodd;stroke:none"
         d="m 676.602,3533.9 5.351,-80.45 c 44.434,2.96 78.047,41.38 75.098,85.81 -2.969,44.42 -41.387,78.05 -85.801,75.09 l 5.352,-80.45 v 0" /><path
         id="path264"
         style="fill:#ffffff;fill-opacity:0.2;fill-rule:evenodd;stroke:none"
         d="m 710.625,4838.94 -5.352,-80.45 c -44.433,2.96 -78.046,41.37 -75.097,85.8 2.969,44.43 41.367,78.06 85.801,75.1 l -5.352,-80.45 v 0" /><path
         id="path266"
         style="fill:#ffffff;fill-opacity:0.2;fill-rule:evenodd;stroke:none"
         d="m 1754.55,3901.98 -11.39,-79.81 c -44.08,6.28 -74.72,47.11 -68.43,91.2 6.29,44.08 47.12,74.72 91.21,68.43 l -11.39,-79.82 v 0" /><path
         id="path268"
         style="fill:#ffffff;fill-opacity:0.2;fill-rule:evenodd;stroke:none"
         d="m 2295.08,5169.81 3.01,-57.11 c -31.57,-1.65 -58.46,22.58 -60.12,54.12 -1.66,31.55 22.58,58.47 54.12,60.11 l 2.99,-57.12 v 0" /><path
         id="path270"
         style="fill:#ffffff;fill-opacity:0.2;fill-rule:evenodd;stroke:none"
         d="m 1818.81,5214.82 3.01,-57.11 c -31.57,-1.66 -58.46,22.57 -60.12,54.12 -1.66,31.54 22.58,58.46 54.12,60.1 l 2.99,-57.11 v 0" /><path
         id="path272"
         style="fill:#ffffff;fill-opacity:0.2;fill-rule:evenodd;stroke:none"
         d="m 2169.41,4052.28 2.99,-57.11 c -31.54,-1.65 -58.46,22.58 -60.12,54.12 -1.64,31.55 22.58,58.47 54.13,60.11 l 3,-57.12 v 0" /><path
         id="path274"
         style="fill:#ffffff;fill-opacity:0.2;fill-rule:evenodd;stroke:none"
         d="m 1434.39,4461.04 2.99,-57.1 c -31.54,-1.66 -58.45,22.57 -60.11,54.11 -1.65,31.55 22.57,58.47 54.12,60.11 l 3,-57.12 v 0" /><path
         id="path276"
         style="fill:#ffffff;fill-opacity:0.2;fill-rule:evenodd;stroke:none"
         d="m 1156.87,3639.77 3.01,-57.11 c -31.56,-1.65 -58.45,22.58 -60.11,54.12 -1.67,31.55 22.57,58.47 54.12,60.11 l 2.98,-57.12 v 0" /><path
         id="path278"
         style="fill:#ffffff;fill-opacity:0.2;fill-rule:evenodd;stroke:none"
         d="m 600.391,4203.16 -9.825,-56.34 c -31.113,5.43 -51.933,35.05 -46.504,66.18 5.43,31.11 35.059,51.94 66.172,46.5 l -9.843,-56.34 v 0" /><path
         id="path280"
         style="fill:#ffffff;fill-opacity:0.2;fill-rule:evenodd;stroke:none"
         d="m 330.391,5305.69 -9.825,-56.34 c -31.132,5.43 -51.933,35.06 -46.523,66.17 5.43,31.12 35.059,51.95 66.172,46.52 l -9.824,-56.35 v 0" /><path
         id="path282"
         style="fill:#ffffff;fill-opacity:0.2;fill-rule:evenodd;stroke:none"
         d="m 1009.16,4458.17 -9.824,-56.34 c -31.133,5.42 -51.934,35.05 -46.524,66.17 5.43,31.12 35.059,51.94 66.168,46.51 l -9.82,-56.34 v 0" /><path
         id="path284"
         style="fill:#ffffff;fill-opacity:0.2;fill-rule:evenodd;stroke:none"
         d="m 285.254,3328.53 -2.422,-57.14 c -31.562,1.33 -56.055,27.99 -54.727,59.56 1.329,31.56 27.989,56.06 59.551,54.73 l -2.402,-57.15 v 0" /><path
         id="path286"
         style="fill:#ffffff;fill-opacity:0.2;fill-rule:evenodd;stroke:none"
         d="m 106.211,3984.52 -9.8438,-80.03 c 44.1988,-5.43 84.4338,25.99 89.8628,70.18 5.45,44.19 -25.976,84.43 -70.175,89.87 l -9.844,-80.02 v 0" /><path
         id="path288"
         style="fill:#ffffff;fill-opacity:0.2;fill-rule:evenodd;stroke:none"
         d="m 371.406,4629.8 -2.988,-57.12 c 31.543,-1.65 58.457,22.58 60.117,54.12 1.641,31.55 -22.578,58.46 -54.14,60.12 l -2.989,-57.12 v 0" /><path
         id="path290"
         style="fill:#ffffff;fill-opacity:0.2;fill-rule:evenodd;stroke:none"
         d="m 80.0195,5529.82 1.8946,-57.16 c 31.5819,1.05 56.3089,27.49 55.2539,59.07 -1.035,31.57 -27.5,56.31 -59.0625,55.25 l 1.914,-57.16 v 0" /><path
         id="path292"
         style="fill:#ffffff;fill-opacity:0.2;fill-rule:evenodd;stroke:none"
         d="m 53.6133,3512.23 -2.0313,-57.15 c 31.5821,-1.12 58.066,23.56 59.18,55.13 1.133,31.57 -23.555,58.06 -55.1175,59.19 l -2.0312,-57.17 v 0" /><path
         id="path294"
         style="fill:#ffffff;fill-opacity:0.2;fill-rule:evenodd;stroke:none"
         d="m 750.098,2804.11 8.261,-56.59 c 31.27,4.57 52.891,33.62 48.321,64.87 -4.571,31.25 -33.614,52.89 -64.864,48.32 l 8.282,-56.6 v 0" /><path
         id="path296"
         style="fill:#ffffff;fill-opacity:0.2;fill-rule:evenodd;stroke:none"
         d="m 961.016,4007.27 1.621,-57.17 c 31.582,0.89 56.443,27.22 55.543,58.8 -0.9,31.57 -27.223,56.44 -58.805,55.54 l 1.641,-57.17 v 0" /><path
         id="path298"
         style="fill:#ffffff;fill-opacity:0.2;fill-rule:evenodd;stroke:none"
         d="m 1045.25,5496.03 -1.42,-57.18 c 31.58,-0.78 57.81,24.19 58.59,55.77 0.78,31.57 -24.18,57.81 -55.76,58.59 l -1.41,-57.18 v 0" /><path
         id="path300"
         style="fill:#ffffff;fill-opacity:0.2;fill-rule:evenodd;stroke:none"
         d="m 1585.27,4903.52 -1.42,-57.19 c 31.58,-0.78 57.81,24.19 58.59,55.77 0.78,31.58 -24.18,57.81 -55.76,58.59 l -1.41,-57.17 v 0" /><path
         id="path302"
         style="fill:#ffffff;fill-opacity:0.2;fill-rule:evenodd;stroke:none"
         d="m 682.168,5376.12 3.047,-57.11 c 31.543,1.69 55.742,28.62 54.062,60.17 -1.679,31.53 -28.613,55.75 -60.156,54.06 l 3.047,-57.12 v 0" /><path
         id="path304"
         style="fill:#ffffff;fill-opacity:0.2;fill-rule:evenodd;stroke:none"
         d="m 3668.48,5552.65 2.99,-57.11 c 31.55,1.65 55.78,28.57 54.13,60.11 -1.66,31.55 -28.57,55.78 -60.11,54.13 l 2.99,-57.13 v 0" /><path
         id="path306"
         style="fill:#ffffff;fill-opacity:0.2;fill-rule:evenodd;stroke:none"
         d="m 4597.64,5511.07 2.99,-57.1 c -31.55,-1.66 -58.45,22.57 -60.11,54.12 -1.65,31.54 22.58,58.46 54.12,60.1 l 3,-57.12 v 0" /><path
         id="path308"
         style="fill:#ffffff;fill-opacity:0.2;fill-rule:evenodd;stroke:none"
         d="m 2629.67,5306.65 v -57.19 c 31.58,0 57.18,25.6 57.18,57.19 0,31.58 -25.6,57.2 -57.18,57.2 v -57.2" /><path
         id="path310"
         style="fill:#ffffff;fill-opacity:0.2;fill-rule:evenodd;stroke:none"
         d="m 1872.15,5550.4 v -57.19 c 31.58,0 57.19,25.61 57.19,57.2 0,31.59 -25.61,57.19 -57.19,57.19 v -57.2" /><path
         id="path312"
         style="fill:#ffffff;fill-opacity:0.2;fill-rule:evenodd;stroke:none"
         d="m 1580.55,5471.65 v -57.19 c 31.58,0 57.2,25.6 57.2,57.19 0,31.6 -25.62,57.2 -57.2,57.2 v -57.2" /><path
         id="path314"
         style="fill:#ffffff;fill-opacity:0.2;fill-rule:evenodd;stroke:none"
         d="m 3204.35,4399.12 v -57.19 c 31.58,0 57.19,25.6 57.19,57.19 0,31.59 -25.61,57.2 -57.19,57.2 v -57.2" /><path
         id="path316"
         style="fill:#ffffff;fill-opacity:0.2;fill-rule:evenodd;stroke:none"
         d="m 3175.04,5450.29 -4.89,-80.47 c 44.44,-2.71 82.66,31.13 85.37,75.58 2.7,44.44 -31.14,82.66 -75.58,85.37 l -4.9,-80.48 v 0" /><path
         id="path318"
         style="fill:#ffffff;fill-opacity:0.2;fill-rule:evenodd;stroke:none"
         d="m 1407.13,5130.39 v -57.19 c 31.58,0 57.19,25.61 57.19,57.2 0,31.58 -25.61,57.19 -57.19,57.19 v -57.2" /><path
         id="path320"
         style="fill:#ffffff;fill-opacity:0.2;fill-rule:evenodd;stroke:none"
         d="m 347.676,3964.11 v -57.19 c 31.601,0 57.207,25.6 57.207,57.19 0,31.59 -25.606,57.2 -57.207,57.2 v -57.2" /><path
         id="path322"
         style="fill:#ffffff;fill-opacity:0.2;fill-rule:evenodd;stroke:none"
         d="m 3444.35,4725.38 v -57.19 c 31.59,0 57.19,25.6 57.19,57.19 0,31.59 -25.6,57.2 -57.19,57.2 v -57.2" /><path
         id="path324"
         style="fill:#ffffff;fill-opacity:0.2;fill-rule:evenodd;stroke:none"
         d="m 4089.32,5499.95 4.11,-57.04 c -31.51,-2.27 -58.89,21.43 -61.16,52.94 -2.27,31.51 21.43,58.89 52.93,61.15 l 4.12,-57.05 v 0" /><path
         id="path326"
         style="fill:#ffffff;fill-opacity:0.2;fill-rule:evenodd;stroke:none"
         d="m 5026.85,5214.95 4.11,-57.05 c -31.51,-2.27 -58.89,21.44 -61.17,52.94 -2.26,31.51 21.44,58.89 52.94,61.16 l 4.12,-57.05 v 0" /><path
         id="path328"
         style="fill:#ffffff;fill-opacity:0.2;fill-rule:evenodd;stroke:none"
         d="m 2323.79,4392.89 -1.15,-43.44 c 23.98,-0.64 43.96,18.29 44.59,42.28 0.64,23.99 -18.29,43.96 -42.27,44.6 l -1.17,-43.44 v 0" /><path
         id="path330"
         style="fill:#ffffff;fill-opacity:0.2;fill-rule:evenodd;stroke:none"
         d="m 1030,4966.65 -1.15,-43.44 c 23.98,-0.63 43.96,18.29 44.61,42.28 0.62,23.99 -18.3,43.96 -42.29,44.6 l -1.17,-43.44 v 0" /><path
         id="path332"
         style="fill:#ffffff;fill-opacity:0.2;fill-rule:evenodd;stroke:none"
         d="m 1294.78,4191.32 8.7,-42.58 c 23.51,4.81 38.69,27.76 33.88,51.27 -4.8,23.52 -27.75,38.69 -51.27,33.89 l 8.69,-42.58 v 0" /><path
         id="path334"
         style="fill:#ffffff;fill-opacity:0.2;fill-rule:evenodd;stroke:none"
         d="m 716.582,4122.98 -3.359,-43.33 c 23.925,-1.85 44.824,16.05 46.679,39.97 1.856,23.93 -16.035,44.83 -39.961,46.68 l -3.359,-43.32 v 0" /><path
         id="path336"
         style="fill:#ffffff;fill-opacity:0.2;fill-rule:evenodd;stroke:none"
         d="m 416.133,5114.3 -11.348,-41.95 c 23.164,-6.26 47.031,7.44 53.301,30.61 6.269,23.16 -7.441,47.03 -30.606,53.29 l -11.347,-41.95 v 0" /><path
         id="path338"
         style="fill:#ffffff;fill-opacity:0.2;fill-rule:evenodd;stroke:none"
         d="m 1829.92,3696.77 -11.35,-41.95 c 23.17,-6.27 47.03,7.44 53.3,30.6 6.27,23.17 -7.44,47.03 -30.6,53.29 l -11.35,-41.94 v 0" /><path
         id="path340"
         style="fill:#ffffff;fill-opacity:0.2;fill-rule:evenodd;stroke:none"
         d="m 3185.26,941.102 18.36,-64.961 c -35.88,-10.129 -73.17,10.73 -83.31,46.609 -10.13,35.871 10.72,73.172 46.6,83.31 l 18.35,-64.958 v 0" /></g></g></svg>