<svg width="800" height="800" xmlns="http://www.w3.org/2000/svg">
 <metadata id="metadata8">image/svg+xml</metadata>
 <defs>
  <radialGradient r="0.5" cy="0.5" cx="0.5" spreadMethod="pad" id="svg_4">
   <stop offset="0" stop-opacity="0.984375" stop-color="#f7cb8a"/>
   <stop offset="1" stop-opacity="0.984375" stop-color="#e0ac69"/>
  </radialGradient>
 </defs>
 <g>
  <title>background</title>
  <rect fill="url(#svg_4)" id="canvas_background" height="802" width="802" y="-1" x="-1"/>
 </g>
 <g>
  <title>Layer 1</title>
  <g opacity="0.14" id="g10" transform="matrix(1.3333333,0,0,-1.3333333,0,800) ">
   <g opacity="0.3" id="g12" transform="scale(0.10000000149011612) ">
    <path fill="#100f0d" fill-rule="nonzero" d="m4090,1880c-33.14,0 -60,26.86 -60,60c0,33.14 26.86,60 60,60c33.13,0 60,-26.86 60,-60c0,-33.14 -26.87,-60 -60,-60" id="path22"/>
    <path fill="#100f0d" fill-rule="nonzero" d="m0,2900l1855.86,0l660,-660l870,0l310,-310l394.14,0l0,20l-385.86,0l-310,310l-870,0l-660,660l-1864.14,0l0,-20" id="path24"/>
    <path fill="#100f0d" fill-rule="nonzero" d="m4550,1820c-33.14,0 -60,26.86 -60,60c0,33.14 26.86,60 60,60c33.13,0 60,-26.86 60,-60c0,-33.14 -26.87,-60 -60,-60" id="path26"/>
    <path fill="#100f0d" fill-rule="nonzero" d="m0,2980l1865.86,0l660,-660l870,0l310,-310l720,0l117.07,-117.07l14.14,14.14l-122.93,122.93l-720,0l-310,310l-870,0l-660,660l-1874.14,0l0,-20" id="path28"/>
    <path fill="#100f0d" fill-rule="nonzero" d="m5560,980c-33.14,0 -60,26.86 -60,60c0,33.14 26.86,60 60,60c33.13,0 60,-26.86 60,-60c0,-33.14 -26.87,-60 -60,-60" id="path30"/>
    <path fill="#100f0d" fill-rule="nonzero" d="m0,2340l1645.86,0l660,-660l870,0l330,-330l1160,0l330,-330l554.14,0l0,20l-545.86,0l-330,330l-1160,0l-330,330l-870,0l-660,660l-1654.14,0l0,-20" id="path32"/>
    <path fill="#100f0d" fill-rule="nonzero" d="m651.074,4040c-32.195,0 -58.301,26.87 -58.301,60c0,33.14 26.106,60 58.301,60c32.196,0 58.301,-26.86 58.301,-60c0,-33.13 -26.105,-60 -58.301,-60" id="path34"/>
    <path fill="#100f0d" fill-rule="nonzero" d="m110.918,3900l-110.918,114.14l0,-28.28l102.871,-105.86l348.164,0l206.914,212.93l-13.75,14.14l-201.219,-207.07l-332.062,0" id="path36"/>
    <path fill="#100f0d" fill-rule="nonzero" d="m2370,1730c-33.14,0 -60,26.86 -60,60c0,33.14 26.86,60 60,60c33.13,0 60,-26.86 60,-60c0,-33.14 -26.87,-60 -60,-60" id="path38"/>
    <path fill="#100f0d" fill-rule="nonzero" d="m0,2450l1695.86,0l657.07,-657.07l14.14,14.14l-662.93,662.93l-1704.14,0l0,-20" id="path40"/>
    <path fill="#100f0d" fill-rule="nonzero" d="m3960,1500c-33.14,0 -60,26.86 -60,60c0,33.14 26.86,60 60,60c33.13,0 60,-26.86 60,-60c0,-33.14 -26.87,-60 -60,-60" id="path42"/>
    <path fill="#100f0d" fill-rule="nonzero" d="m0,2530l1735.86,0l660,-660l870,0l310,-310l394.14,0l0,20l-385.86,0l-310,310l-870,0l-660,660l-1744.14,0l0,-20" id="path44"/>
    <path fill="#100f0d" fill-rule="nonzero" d="m4440,1460c-33.14,0 -60,26.86 -60,60c0,33.14 26.86,60 60,60c33.13,0 60,-26.86 60,-60c0,-33.14 -26.87,-60 -60,-60" id="path46"/>
    <path fill="#100f0d" fill-rule="nonzero" d="m0,2620l1745.86,0l660,-660l870,0l310,-310l720,0l117.07,-117.07l14.14,14.14l-122.93,122.93l-720,0l-310,310l-870,0l-660,660l-1754.14,0l0,-20" id="path48"/>
    <path fill="#100f0d" fill-rule="nonzero" d="m3910,1040c-33.14,0 -60,26.86 -60,60c0,33.14 26.86,60 60,60c33.13,0 60,-26.86 60,-60c0,-33.14 -26.87,-60 -60,-60" id="path50"/>
    <path fill="#100f0d" fill-rule="nonzero" d="m0,2190l1425.86,0l1110,-1110l1404.14,0l0,20l-1395.86,0l-1110,1110l-1434.14,0l0,-20" id="path52"/>
    <path fill="#100f0d" fill-rule="nonzero" d="m1661.7,3970c-32.21,0 -58.31,26.87 -58.31,60c0,33.14 26.1,60 58.31,60c32.2,0 58.3,-26.86 58.3,-60c0,-33.13 -26.1,-60 -58.3,-60" id="path54"/>
    <path fill="#100f0d" fill-rule="nonzero" d="m91.4844,3800l-91.4844,94.14l0,-28.28l83.4375,-85.86l1290.2425,0l294.24,252.31l-12.45,15.38l-288.81,-247.69l-1275.1756,0" id="path56"/>
    <path fill="#100f0d" fill-rule="nonzero" d="m1743.59,3784.25c33.14,0 60,-26.87 60,-60c0,-33.14 -26.86,-60 -60,-60c-33.13,0 -60,26.86 -60,60c0,33.13 26.87,60 60,60" id="path58"/>
    <path fill="#100f0d" fill-rule="nonzero" d="m3193.59,3734.25c33.15,0 60,-26.87 60,-60c0,-33.14 -26.85,-60 -60,-60c-33.12,0 -60,26.86 -60,60c0,33.13 26.88,60 60,60" id="path60"/>
    <path fill="#100f0d" fill-rule="nonzero" d="m3200.66,3696.48l-14.14,-14.15l-226.75,226.76l-1002.87,0l-226.9,-189.09l-12.8,15.37l232.47,193.72l1018.38,0l232.61,-232.61l0,0" id="path62"/>
    <path fill="#100f0d" fill-rule="nonzero" d="m3190,1480c-33.14,0 -60,26.86 -60,60c0,33.14 26.86,60 60,60c33.14,0 60,-26.86 60,-60c0,-33.14 -26.86,-60 -60,-60" id="path64"/>
    <path fill="#100f0d" fill-rule="nonzero" d="m4850,940c-33.14,0 -60,26.859 -60,60c0,33.14 26.86,60 60,60c33.13,0 60,-26.86 60,-60c0,-33.141 -26.87,-60 -60,-60" id="path66"/>
    <path fill="#100f0d" fill-rule="nonzero" d="m3182.93,1532.93l14.14,14.14l307.07,-307.07l1130,0l242.93,-242.93l-14.14,-14.14l-237.07,237.07l-1130,0l-312.93,312.93l0,0" id="path68"/>
    <path fill="#100f0d" fill-rule="nonzero" d="m3690,4500c-33.14,0 -60,26.87 -60,60c0,33.14 26.86,60 60,60c33.13,0 60,-26.86 60,-60c0,-33.13 -26.87,-60 -60,-60" id="path70"/>
    <path fill="#100f0d" fill-rule="nonzero" d="m2085.86,4290l-600,-600l-1485.86,0l0,-20l1494.14,0l600,600l1330,0l272.93,272.93l-14.14,14.14l-267.07,-267.07l-1330,0" id="path72"/>
    <path fill="#100f0d" fill-rule="nonzero" d="m1560,1910c-33.14,0 -60,-26.86 -60,-60c0,-33.14 26.86,-60 60,-60c33.13,0 60,26.86 60,60c0,33.14 -26.87,60 -60,60" id="path74"/>
    <path fill="#100f0d" fill-rule="nonzero" d="m0,2120l1285.86,0l267.07,-267.07l14.14,14.14l-272.93,272.93l-1294.14,0l0,-20" id="path76"/>
    <path fill="#100f0d" fill-rule="nonzero" d="m2030,1690c-33.14,0 -60,26.86 -60,60c0,33.14 26.86,60 60,60c33.13,0 60,-26.86 60,-60c0,-33.14 -26.87,-60 -60,-60" id="path78"/>
    <path fill="#100f0d" fill-rule="nonzero" d="m0,2270l1515.86,0l517.07,-517.07l14.14,14.14l-522.93,522.93l-1524.14,0l0,-20" id="path80"/>
    <path fill="#100f0d" fill-rule="nonzero" d="m2040,3960c-33.14,0 -60,26.87 -60,60c0,33.14 26.86,60 60,60c33.13,0 60,-26.86 60,-60c0,-33.13 -26.87,-60 -60,-60" id="path82"/>
    <path fill="#100f0d" fill-rule="nonzero" d="m4050,3960c-33.14,0 -60,26.87 -60,60c0,33.14 26.86,60 60,60c33.13,0 60,-26.86 60,-60c0,-33.13 -26.87,-60 -60,-60" id="path84"/>
    <path fill="#100f0d" fill-rule="nonzero" d="m2050,4010l0,20l2000,0l0,-20l-2000,0l0,0" id="path86"/>
    <path fill="#100f0d" fill-rule="nonzero" d="m5000,2200c-33.14,0 -60,26.86 -60,60c0,33.14 26.86,60 60,60c33.13,0 60,-26.86 60,-60c0,-33.14 -26.87,-60 -60,-60" id="path88"/>
    <path fill="#100f0d" fill-rule="nonzero" d="m0,3240l1975.86,0l660,-660l870,0l330,-330l1164.14,0l0,20l-1155.86,0l-330,330l-870,0l-660,660l-1984.14,0l0,-20" id="path90"/>
    <path fill="#100f0d" fill-rule="nonzero" d="m3480,2630c-33.14,0 -60,26.86 -60,60c0,33.14 26.86,60 60,60c33.13,0 60,-26.86 60,-60c0,-33.14 -26.87,-60 -60,-60" id="path92"/>
    <path fill="#100f0d" fill-rule="nonzero" d="m0,3340l1995.86,0l660,-660l874.14,0l0,20l-865.86,0l-660,660l-2004.14,0l0,-20" id="path94"/>
    <path fill="#100f0d" fill-rule="nonzero" d="m3952.5,2352.5c-33.14,0 -60,26.86 -60,60c0,33.14 26.86,60 60,60c33.13,0 60,-26.86 60,-60c0,-33.14 -26.87,-60 -60,-60" id="path96"/>
    <path fill="#100f0d" fill-rule="nonzero" d="m3949.14,2435l-365,365l-870,0l-660,660l-2054.14,0l0,-20l2045.86,0l660,-660l870,0l345,-345l28.28,0" id="path98"/>
    <path fill="#100f0d" fill-rule="nonzero" d="m4570,2502.5c-33.14,0 -60,26.86 -60,60c0,33.14 26.86,60 60,60c33.13,0 60,-26.86 60,-60c0,-33.14 -26.87,-60 -60,-60" id="path100"/>
    <path fill="#100f0d" fill-rule="nonzero" d="m4572.5,2570l-668.36,0l-310,310l-870,0l-660,660l-2064.14,0l0,-20l2055.86,0l660,-660l870,0l310,-310l676.64,0l0,20" id="path102"/>
    <path fill="#100f0d" fill-rule="nonzero" d="m4150,2040c-33.14,0 -60,26.86 -60,60c0,33.14 26.86,60 60,60c33.13,0 60,-26.86 60,-60c0,-33.14 -26.87,-60 -60,-60" id="path104"/>
    <path fill="#100f0d" fill-rule="nonzero" d="m0,3070l1925.86,0l660,-660l870,0l310,-310l394.14,0l0,20l-385.86,0l-310,310l-870,0l-660,660l-1934.14,0l0,-20" id="path106"/>
    <path fill="#100f0d" fill-rule="nonzero" d="m4630,2000c-33.14,0 -60,26.86 -60,60c0,33.14 26.86,60 60,60c33.13,0 60,-26.86 60,-60c0,-33.14 -26.87,-60 -60,-60" id="path108"/>
    <path fill="#100f0d" fill-rule="nonzero" d="m0,3160l1935.86,0l660,-660l870,0l310,-310l720,0l117.07,-117.07l14.14,14.14l-122.93,122.93l-720,0l-310,310l-870,0l-660,660l-1944.14,0l0,-20" id="path110"/>
    <path fill="#100f0d" fill-rule="nonzero" d="m4200,3480c-33.14,0 -60,26.86 -60,60c0,33.14 26.86,60 60,60c33.13,0 60,-26.86 60,-60c0,-33.14 -26.87,-60 -60,-60" id="path112"/>
    <path fill="#100f0d" fill-rule="nonzero" d="m2284.14,3610l-2284.14,0l0,-20l2275.86,0l300,-300l1327.76,0l302.79,252.31l-12.81,15.38l-297.21,-247.69l-1312.25,0l-300,300" id="path114"/>
    <path fill="#100f0d" fill-rule="nonzero" d="m4800,3690c-33.14,0 -60,26.87 -60,60c0,33.14 26.86,60 60,60c33.13,0 60,-26.86 60,-60c0,-33.13 -26.87,-60 -60,-60" id="path116"/>
    <path fill="#100f0d" fill-rule="nonzero" d="m2490,3730c-33.14,0 -60,26.87 -60,60c0,33.14 26.86,60 60,60c33.13,0 60,-26.86 60,-60c0,-33.13 -26.87,-60 -60,-60" id="path118"/>
    <path fill="#100f0d" fill-rule="nonzero" d="m2482.93,3777.77l14.14,14.14l226.76,-226.75l1002.86,0l229.68,191.38l853.59,3.46l0.08,-20l-846.4,-3.43l-229.7,-191.41l-1018.39,0l-232.62,232.61l0,0" id="path120"/>
    <path fill="#100f0d" fill-rule="nonzero" d="m5080,3470c-33.14,0 -60,-26.86 -60,-60c0,-33.14 26.86,-60 60,-60c33.13,0 60,26.86 60,60c0,33.14 -26.87,60 -60,60" id="path122"/>
    <path fill="#100f0d" fill-rule="nonzero" d="m3160,3100l0,-20l1034.14,0l330,330l545.86,0l0,20l-554.14,0l-330,-330l-1025.86,0" id="path124"/>
    <path fill="#100f0d" fill-rule="nonzero" d="m3160,3030c-33.14,0 -60,26.86 -60,60c0,33.14 26.86,60 60,60c33.14,0 60,-26.86 60,-60c0,-33.14 -26.86,-60 -60,-60" id="path126"/>
    <path fill="#100f0d" fill-rule="nonzero" d="m4040,3150c-33.14,0 -60,26.86 -60,60c0,33.14 26.86,60 60,60c33.13,0 60,-26.86 60,-60c0,-33.14 -26.87,-60 -60,-60" id="path128"/>
    <path fill="#100f0d" fill-rule="nonzero" d="m2810,3150c-33.14,0 -60,26.86 -60,60c0,33.14 26.86,60 60,60c33.14,0 60,-26.86 60,-60c0,-33.14 -26.86,-60 -60,-60" id="path130"/>
    <path fill="#100f0d" fill-rule="nonzero" d="m2810,3200l0,20l1230,0l0,-20l-1230,0l0,0" id="path132"/>
    <path fill="#100f0d" fill-rule="nonzero" d="m3272.29,2160l-798.15,0l-660,660l-1814.14,0l0,-20l1805.86,0l660,-660l808.05,0c-0.48,6.67 -1.05,13.34 -1.62,20" id="path134"/>
    <path fill="#100f0d" fill-rule="nonzero" d="m3325,2185.62c-20.85,0 -37.81,-16.96 -37.81,-37.81c0,-20.85 16.96,-37.81 37.81,-37.81c20.85,0 37.81,16.96 37.81,37.81c0,20.85 -16.96,37.81 -37.81,37.81zm0,-105.62c-37.39,0 -67.81,30.42 -67.81,67.81c0,37.4 30.42,67.81 67.81,67.81c37.39,0 67.81,-30.41 67.81,-67.81c0,-37.39 -30.42,-67.81 -67.81,-67.81l0,0" id="path136"/>
    <path fill="#100f0d" fill-rule="nonzero" d="m1100,1750l-245.859,0l-330,330l-524.141,0l0,-20l515.859,0l330,-330l254.141,0l0,20" id="path138"/>
    <path fill="#100f0d" fill-rule="nonzero" d="m1150,1775.62c-20.85,0 -37.81,-16.96 -37.81,-37.81c0,-20.85 16.96,-37.81 37.81,-37.81c20.85,0 37.81,16.96 37.81,37.81c0,20.85 -16.96,37.81 -37.81,37.81zm0,-105.62c-37.39,0 -67.81,30.42 -67.81,67.81c0,37.4 30.42,67.81 67.81,67.81c37.39,0 67.81,-30.41 67.81,-67.81c0,-37.39 -30.42,-67.81 -67.81,-67.81l0,0" id="path140"/>
    <path fill="#100f0d" fill-rule="nonzero" d="m0,2700l1785.86,0l660,-660l870,0l330,-330l1164.14,0l0,20l-1155.86,0l-330,330l-870,0l-660,660l-1794.14,0l0,-20" id="path142"/>
    <path fill="#100f0d" fill-rule="nonzero" d="m4860,1757.81c-20.85,0 -37.81,-16.96 -37.81,-37.81c0,-20.85 16.96,-37.81 37.81,-37.81c20.85,0 37.81,16.96 37.81,37.81c0,20.85 -16.96,37.81 -37.81,37.81zm0,-105.62c-37.39,0 -67.81,30.42 -67.81,67.81c0,37.39 30.42,67.81 67.81,67.81c37.39,0 67.81,-30.42 67.81,-67.81c0,-37.39 -30.42,-67.81 -67.81,-67.81l0,0" id="path144"/>
    <path fill="#100f0d" fill-rule="nonzero" d="m2498.72,1285.43l-244.58,244.57l713.83,0c-0.75,6.66 -1.32,13.33 -1.73,20l-760.38,0l280.44,-280.44c4.09,5.32 8.26,10.6 12.42,15.87" id="path146"/>
    <path fill="#100f0d" fill-rule="nonzero" d="m3030,1582.81c-20.85,0 -37.81,-16.96 -37.81,-37.81c0,-20.85 16.96,-37.81 37.81,-37.81c20.85,0 37.81,16.96 37.81,37.81c0,20.85 -16.96,37.81 -37.81,37.81zm0,-105.62c-37.39,0 -67.81,30.42 -67.81,67.81c0,37.39 30.42,67.81 67.81,67.81c37.39,0 67.81,-30.42 67.81,-67.81c0,-37.39 -30.42,-67.81 -67.81,-67.81l0,0" id="path148"/>
    <path fill="#100f0d" fill-rule="nonzero" d="m2530,1287.81c-20.85,0 -37.81,-16.96 -37.81,-37.81c0,-20.85 16.96,-37.81 37.81,-37.81c20.85,0 37.81,16.96 37.81,37.81c0,20.85 -16.96,37.81 -37.81,37.81zm0,-105.62c-37.39,0 -67.81,30.42 -67.81,67.81c0,37.39 30.42,67.81 67.81,67.81c37.39,0 67.81,-30.42 67.81,-67.81c0,-37.39 -30.42,-67.81 -67.81,-67.81l0,0" id="path150"/>
    <path fill="#100f0d" fill-rule="nonzero" d="m2420,3300l14.14,14.14l307.07,-307.07l1130,0l242.93,-242.93l-14.14,-14.14l-237.07,237.07l-1130,0l-312.93,312.93l0,0" id="path152"/>
    <path fill="#100f0d" fill-rule="nonzero" d="m4135,2762.81c-20.85,0 -37.81,-16.96 -37.81,-37.81c0,-20.85 16.96,-37.81 37.81,-37.81c20.85,0 37.81,16.96 37.81,37.81c0,20.85 -16.96,37.81 -37.81,37.81zm0,-105.62c-37.39,0 -67.81,30.42 -67.81,67.81c0,37.39 30.42,67.81 67.81,67.81c37.39,0 67.81,-30.42 67.81,-67.81c0,-37.39 -30.42,-67.81 -67.81,-67.81l0,0" id="path154"/>
    <path fill="#100f0d" fill-rule="nonzero" d="m2400,3370.62c-20.85,0 -37.81,-16.96 -37.81,-37.81c0,-20.85 16.96,-37.81 37.81,-37.81c20.85,0 37.81,16.96 37.81,37.81c0,20.85 -16.96,37.81 -37.81,37.81zm0,-105.62c-37.39,0 -67.81,30.42 -67.81,67.81c0,37.4 30.42,67.81 67.81,67.81c37.39,0 67.81,-30.41 67.81,-67.81c0,-37.39 -30.42,-67.81 -67.81,-67.81l0,0" id="path156"/>
    <path fill="#100f0d" fill-rule="nonzero" d="m3943.6,3584.25l-226.9,-189.09l-1002.87,0l-176.37,176.37c-3.94,-3.6 -7.93,-7.14 -12.41,-10.16c-1.42,-0.96 -2.84,-1.39 -4.23,-1.49l184.73,-184.72l1018.39,0l232.47,193.72l-12.81,15.37" id="path158"/>
    <path fill="#100f0d" fill-rule="nonzero" d="m3985,3642.81c-20.85,0 -37.81,-16.96 -37.81,-37.81c0,-20.85 16.96,-37.81 37.81,-37.81c20.85,0 37.81,16.96 37.81,37.81c0,20.85 -16.96,37.81 -37.81,37.81zm0,-105.62c-37.39,0 -67.81,30.42 -67.81,67.81c0,37.39 30.42,67.81 67.81,67.81c37.39,0 67.81,-30.42 67.81,-67.81c0,-37.39 -30.42,-67.81 -67.81,-67.81l0,0" id="path160"/>
    <path fill="#100f0d" fill-rule="nonzero" d="m2500,3637.81c-20.85,0 -37.81,-16.96 -37.81,-37.81c0,-20.85 16.96,-37.81 37.81,-37.81c20.85,0 37.81,16.96 37.81,37.81c0,20.85 -16.96,37.81 -37.81,37.81zm0,-105.62c-37.39,0 -67.81,30.42 -67.81,67.81c0,37.39 30.42,67.81 67.81,67.81c37.39,0 67.81,-30.42 67.81,-67.81c0,-37.39 -30.42,-67.81 -67.81,-67.81l0,0" id="path162"/>
    <path fill="#100f0d" fill-rule="nonzero" d="m3356.69,4135.16l-946.69,0l0,-20l953.94,0l229.7,191.42l846.4,3.42l-0.08,20l-853.59,-3.46l-229.68,-191.38" id="path164"/>
    <path fill="#100f0d" fill-rule="nonzero" d="m4490,4360.62c-20.85,0 -37.81,-16.96 -37.81,-37.81c0,-20.85 16.96,-37.81 37.81,-37.81c20.85,0 37.81,16.96 37.81,37.81c0,20.85 -16.96,37.81 -37.81,37.81zm0,-105.62c-37.39,0 -67.81,30.42 -67.81,67.81c0,37.4 30.42,67.81 67.81,67.81c37.39,0 67.81,-30.41 67.81,-67.81c0,-37.39 -30.42,-67.81 -67.81,-67.81l0,0" id="path166"/>
    <path fill="#100f0d" fill-rule="nonzero" d="m2360,4175.62c-20.85,0 -37.81,-16.96 -37.81,-37.81c0,-20.85 16.96,-37.81 37.81,-37.81c20.85,0 37.81,16.96 37.81,37.81c0,20.85 -16.96,37.81 -37.81,37.81zm0,-105.62c-37.39,0 -67.81,30.42 -67.81,67.81c0,37.4 30.42,67.81 67.81,67.81c37.39,0 67.81,-30.41 67.81,-67.81c0,-37.39 -30.42,-67.81 -67.81,-67.81l0,0" id="path168"/>
    <path fill="#100f0d" fill-rule="nonzero" d="m1402.93,3977.07l392.93,392.93l710,0l160,160l510,0l154.14,154.14l0,195.86l20,0l0,-204.14l-165.86,-165.86l-510,0l-160,-160l-710,0l-387.07,-387.07l-14.14,14.14l0,0" id="path170"/>
    <path fill="#100f0d" fill-rule="nonzero" d="m3340,4960.62c-20.85,0 -37.81,-16.96 -37.81,-37.81c0,-20.85 16.96,-37.81 37.81,-37.81c20.85,0 37.81,16.96 37.81,37.81c0,20.85 -16.96,37.81 -37.81,37.81zm0,-105.62c-37.39,0 -67.81,30.42 -67.81,67.81c0,37.4 30.42,67.81 67.81,67.81c37.39,0 67.81,-30.41 67.81,-67.81c0,-37.39 -30.42,-67.81 -67.81,-67.81l0,0" id="path172"/>
    <path fill="#100f0d" fill-rule="nonzero" d="m1370,3985.62c-20.85,0 -37.81,-16.96 -37.81,-37.81c0,-20.85 16.96,-37.81 37.81,-37.81c20.85,0 37.81,16.96 37.81,37.81c0,20.85 -16.96,37.81 -37.81,37.81zm0,-105.62c-37.39,0 -67.81,30.42 -67.81,67.81c0,37.4 30.42,67.81 67.81,67.81c37.39,0 67.81,-30.41 67.81,-67.81c0,-37.39 -30.42,-67.81 -67.81,-67.81l0,0" id="path174"/>
   </g>
  </g>
 </g>
</svg>